<svg style="width: 0; height:0; visibility: hidden;" xmlns="http://www.w3.org/2000/svg">
<!--    <symbol>-->
<!--        <g>-->

<!--        </g>-->
<!--    </symbol>-->
<!--    <symbol id="baks" viewBox="0 0 36 33">-->
<!--        <path xmlns="http://www.w3.org/2000/svg"-->
<!--              d="M19.5156 24.2188C18.4844 24.2188 17.5677 24.0729 16.7656 23.7812C15.974 23.4792 15.3281 23.0781 14.8281 22.5781C14.3385 22.0781 14.026 21.5312 13.8906 20.9375C13.7969 20.4583 13.8542 20.0625 14.0625 19.75C14.2812 19.4271 14.6042 19.2656 15.0312 19.2656C15.2708 19.2656 15.5 19.3333 15.7188 19.4688C15.9375 19.6042 16.1094 19.8073 16.2344 20.0781C16.5052 20.7448 16.9062 21.2396 17.4375 21.5625C17.9792 21.8854 18.6771 22.0469 19.5312 22.0469C20.4583 22.0469 21.1979 21.8698 21.75 21.5156C22.3125 21.151 22.5938 20.6615 22.5938 20.0469C22.5938 19.526 22.4167 19.1198 22.0625 18.8281C21.7083 18.5365 21.1198 18.2917 20.2969 18.0938L18.0625 17.5781C16.6667 17.2656 15.625 16.7812 14.9375 16.125C14.2604 15.4688 13.9219 14.6146 13.9219 13.5625C13.9219 12.7188 14.151 11.974 14.6094 11.3281C15.0781 10.6719 15.724 10.1615 16.5469 9.79688C17.3698 9.43229 18.3229 9.25 19.4062 9.25C20.3958 9.25 21.2552 9.41146 21.9844 9.73438C22.724 10.0573 23.3229 10.4688 23.7812 10.9688C24.2396 11.4688 24.5417 11.9844 24.6875 12.5156C24.8229 12.9844 24.7865 13.3906 24.5781 13.7344C24.3698 14.0781 24.0469 14.25 23.6094 14.25C23.3698 14.25 23.1406 14.1823 22.9219 14.0469C22.7135 13.9115 22.5365 13.6979 22.3906 13.4062C22.1094 12.7396 21.724 12.2448 21.2344 11.9219C20.7448 11.599 20.1302 11.4375 19.3906 11.4375C18.5469 11.4375 17.8646 11.6198 17.3438 11.9844C16.8229 12.349 16.5625 12.8333 16.5625 13.4375C16.5625 13.9167 16.75 14.3073 17.125 14.6094C17.5 14.9115 18.1042 15.1615 18.9375 15.3594L21.1719 15.875C22.6406 16.2188 23.6927 16.6979 24.3281 17.3125C24.974 17.9271 25.2969 18.7656 25.2969 19.8281C25.2969 20.6927 25.0469 21.4583 24.5469 22.125C24.0573 22.7812 23.375 23.2969 22.5 23.6719C21.6354 24.0365 20.6406 24.2188 19.5156 24.2188ZM18.5938 25.6719V7.78125C18.5938 7.53125 18.6823 7.31771 18.8594 7.14062C19.0469 6.95312 19.2708 6.85938 19.5312 6.85938C19.7812 6.85938 20 6.95312 20.1875 7.14062C20.375 7.31771 20.4688 7.53125 20.4688 7.78125V25.6719C20.4688 25.9219 20.375 26.1406 20.1875 26.3281C20 26.5156 19.7812 26.6094 19.5312 26.6094C19.2708 26.6094 19.0469 26.5156 18.8594 26.3281C18.6823 26.1406 18.5938 25.9219 18.5938 25.6719ZM19.5312 32.8594C17.8438 32.8594 16.2083 32.5938 14.625 32.0625C13.0521 31.5417 11.599 30.8021 10.2656 29.8438C8.94271 28.8958 7.79688 27.7969 6.82812 26.5469C6.48438 26.1302 6.33854 25.6979 6.39062 25.25C6.44271 24.8021 6.64583 24.4479 7 24.1875C7.38542 23.9167 7.78646 23.8281 8.20312 23.9219C8.61979 24.0156 8.98958 24.2448 9.3125 24.6094C10.0938 25.6406 11.0104 26.5365 12.0625 27.2969C13.125 28.0469 14.2812 28.625 15.5312 29.0312C16.7917 29.4479 18.125 29.6615 19.5312 29.6719C21.3229 29.6823 23 29.349 24.5625 28.6719C26.1354 28.0052 27.5104 27.0833 28.6875 25.9062C29.875 24.7188 30.8021 23.3438 31.4688 21.7812C32.1458 20.2083 32.4844 18.5208 32.4844 16.7188C32.4844 14.9271 32.1458 13.25 31.4688 11.6875C30.8021 10.1146 29.875 8.73958 28.6875 7.5625C27.5104 6.375 26.1354 5.44792 24.5625 4.78125C23 4.11458 21.3229 3.78125 19.5312 3.78125C17.7292 3.78125 16.0469 4.11458 14.4844 4.78125C12.9323 5.4375 11.5625 6.35417 10.375 7.53125C9.1875 8.70833 8.25521 10.0781 7.57812 11.6406C6.91146 13.1927 6.57292 14.8646 6.5625 16.6562H3.375C3.38542 14.4479 3.8125 12.375 4.65625 10.4375C5.5 8.5 6.66667 6.79167 8.15625 5.3125C9.64583 3.83333 11.3594 2.67708 13.2969 1.84375C15.2448 1 17.3229 0.578125 19.5312 0.578125C21.7396 0.578125 23.8177 1 25.7656 1.84375C27.7135 2.6875 29.4271 3.85417 30.9062 5.34375C32.3958 6.82292 33.5625 8.53646 34.4062 10.4844C35.25 12.4323 35.6719 14.5104 35.6719 16.7188C35.6719 18.9271 35.25 21.0052 34.4062 22.9531C33.5625 24.901 32.3958 26.6198 30.9062 28.1094C29.4271 29.599 27.7135 30.7604 25.7656 31.5938C23.8177 32.4375 21.7396 32.8594 19.5312 32.8594ZM1.5 13.5312H9.21875C9.61458 13.5312 9.91146 13.625 10.1094 13.8125C10.3177 13.9896 10.4167 14.2188 10.4062 14.5C10.3958 14.7708 10.2865 15.0625 10.0781 15.375L6.28125 20.6406C6.02083 20.9948 5.71354 21.1771 5.35938 21.1875C5.00521 21.1875 4.69271 21.0052 4.42188 20.6406L0.625 15.375C0.416667 15.0729 0.307292 14.7812 0.296875 14.5C0.286458 14.2188 0.380208 13.9896 0.578125 13.8125C0.786458 13.625 1.09375 13.5312 1.5 13.5312Z"/>-->
<!--    </symbol>-->
    <symbol id="youtube" viewBox="0 0 27 32" >
        <g>
            <path fill-rule="evenodd" clip-rule="evenodd" d="M21.1904 12.3939H19.6105V11.4723C19.0115 12.164 18.5038 12.5134 17.9503 12.5134C17.4647 12.5134 17.1275 12.2826 16.9586 11.8655C16.856 11.612 16.7832 11.2161 16.7832 10.6346V3.93225H18.3632V10.2157V10.8021C18.4 11.0373 18.4991 11.1232 18.7 11.1232C19.0024 11.1232 19.276 10.8584 19.6105 10.3832V3.93225H21.1904V12.3939Z" fill="#E43071"/>
            <path fill-rule="evenodd" clip-rule="evenodd" d="M21.1904 12.3939H19.6105V11.4723C19.0115 12.164 18.5038 12.5134 17.9503 12.5134C17.4647 12.5134 17.1275 12.2826 16.9586 11.8655C16.856 11.612 16.7832 11.2161 16.7832 10.6346V3.93225H18.3632V10.2157V10.8021C18.4 11.0373 18.4991 11.1232 18.7 11.1232C19.0024 11.1232 19.276 10.8584 19.6105 10.3832V3.93225H21.1904V12.3939Z" stroke="black"/>
            <path fill-rule="evenodd" clip-rule="evenodd" d="M21.1904 12.3939H19.6105V11.4723C19.0115 12.164 18.5038 12.5134 17.9503 12.5134C17.4647 12.5134 17.1275 12.2826 16.9586 11.8655C16.856 11.612 16.7832 11.2161 16.7832 10.6346V3.93225H18.3632V10.2157V10.8021C18.4 11.0373 18.4991 11.1232 18.7 11.1232C19.0024 11.1232 19.276 10.8584 19.6105 10.3832V3.93225H21.1904V12.3939Z" stroke="black" stroke-opacity="0.2"/>
            <path fill-rule="evenodd" clip-rule="evenodd" d="M14.0391 9.88044C14.1222 10.7182 13.8643 11.1339 13.3737 11.1339C12.8832 11.1339 12.6255 10.7182 12.7086 9.88044V6.52929C12.6255 5.6915 12.8832 5.29883 13.3739 5.29883C13.8645 5.29883 14.1231 5.6915 14.0399 6.52929L14.0391 9.88044ZM15.619 6.69685C15.619 5.79254 15.4388 5.11359 15.1201 4.68615C14.6992 4.10741 14.0391 3.87048 13.3739 3.87048C12.6209 3.87048 12.0479 4.10741 11.6276 4.68615C11.3039 5.11359 11.1302 5.79991 11.1302 6.70422L11.1287 9.71289C11.1287 10.612 11.2831 11.2333 11.6069 11.6566C12.0272 12.2336 12.7086 12.5392 13.3739 12.5392C14.0391 12.5392 14.7325 12.2336 15.1534 11.6566C15.472 11.2333 15.619 10.612 15.619 9.71289V6.69685Z" fill="#E43071"/>
            <path d="M14.0391 9.88044L13.5391 9.88032L13.5391 9.90513L13.5415 9.92983L14.0391 9.88044ZM12.7086 9.88044L13.2062 9.92983L13.2086 9.9052V9.88044H12.7086ZM12.7086 6.52929H13.2086V6.50454L13.2062 6.4799L12.7086 6.52929ZM14.0399 6.52929L13.5424 6.4799L13.5399 6.50447L13.5399 6.52917L14.0399 6.52929ZM15.1201 4.68615L14.7157 4.98027L14.7192 4.985L15.1201 4.68615ZM11.6276 4.68615L12.0263 4.98809L12.0322 4.97995L11.6276 4.68615ZM11.1302 6.70422L11.6302 6.70448V6.70422H11.1302ZM11.1287 9.71289L10.6287 9.71262V9.71289H11.1287ZM11.6069 11.6566L12.0112 11.3622L12.004 11.3529L11.6069 11.6566ZM15.1534 11.6566L14.7538 11.3559L14.7494 11.362L15.1534 11.6566ZM13.5415 9.92983C13.5789 10.3064 13.528 10.4999 13.484 10.5793C13.4661 10.6117 13.4532 10.619 13.4498 10.6209C13.4451 10.6236 13.4249 10.6339 13.3737 10.6339V11.6339C13.7874 11.6339 14.1492 11.4427 14.3591 11.0634C14.546 10.7255 14.5824 10.2923 14.5366 9.83106L13.5415 9.92983ZM13.3737 10.6339C13.3226 10.6339 13.3024 10.6236 13.2977 10.6209C13.2944 10.6191 13.2815 10.6118 13.2636 10.5795C13.2197 10.5 13.1688 10.3064 13.2062 9.92983L12.2111 9.83106C12.1653 10.2923 12.2017 10.7254 12.3884 11.0633C12.5981 11.4426 12.96 11.6339 13.3737 11.6339V10.6339ZM13.2086 9.88044V6.52929H12.2086V9.88044H13.2086ZM13.2062 6.4799C13.1686 6.10175 13.2205 5.91771 13.2607 5.84705C13.2763 5.81961 13.2869 5.81427 13.2899 5.81263C13.2953 5.80971 13.3181 5.79883 13.3739 5.79883V4.79883C12.9718 4.79883 12.6065 4.97444 12.3914 5.35272C12.2009 5.68785 12.1654 6.11904 12.2111 6.57867L13.2062 6.4799ZM13.3739 5.79883C13.4296 5.79883 13.4525 5.80971 13.4581 5.81271C13.4613 5.81444 13.472 5.81991 13.4876 5.84739C13.5278 5.91802 13.5799 6.10197 13.5424 6.4799L14.5375 6.57867C14.5831 6.11882 14.5474 5.68754 14.3565 5.35239C14.1411 4.97433 13.7758 4.79883 13.3739 4.79883V5.79883ZM13.5399 6.52917L13.5391 9.88032L14.5391 9.88057L14.5399 6.52941L13.5399 6.52917ZM16.119 6.69685C16.119 5.74167 15.9312 4.93762 15.521 4.38731L14.7192 4.985C14.9463 5.28957 15.119 5.84341 15.119 6.69685H16.119ZM15.5245 4.39206C14.9851 3.65053 14.1527 3.37048 13.3739 3.37048V4.37048C13.9255 4.37048 14.4132 4.56429 14.7158 4.98025L15.5245 4.39206ZM13.3739 3.37048C12.4962 3.37048 11.7564 3.65787 11.223 4.39236L12.0322 4.97995C12.3393 4.55695 12.7456 4.37048 13.3739 4.37048V3.37048ZM11.229 4.38428C10.8093 4.93845 10.6302 5.7546 10.6302 6.70422H11.6302C11.6302 5.84522 11.7984 5.28874 12.0262 4.98803L11.229 4.38428ZM10.6302 6.70396L10.6287 9.71262L11.6287 9.71315L11.6302 6.70448L10.6302 6.70396ZM10.6287 9.71289C10.6287 10.6548 10.7876 11.4085 11.2097 11.9604L12.004 11.3529C11.7786 11.0581 11.6287 10.5692 11.6287 9.71289H10.6287ZM11.2027 11.951C11.7252 12.6684 12.5631 13.0392 13.3739 13.0392V12.0392C12.8541 12.0392 12.3291 11.7989 12.011 11.3623L11.2027 11.951ZM13.3739 13.0392C14.1817 13.0392 15.0327 12.6705 15.5573 11.9513L14.7494 11.362C14.4323 11.7967 13.8965 12.0392 13.3739 12.0392V13.0392ZM15.5529 11.9573C15.969 11.4044 16.119 10.6504 16.119 9.71289H15.119C15.119 10.5736 14.975 11.0622 14.7539 11.3559L15.5529 11.9573ZM16.119 9.71289V6.69685H15.119V9.71289H16.119Z" fill="black"/>
            <path d="M14.0391 9.88044L13.5391 9.88032L13.5391 9.90513L13.5415 9.92983L14.0391 9.88044ZM12.7086 9.88044L13.2062 9.92983L13.2086 9.9052V9.88044H12.7086ZM12.7086 6.52929H13.2086V6.50454L13.2062 6.4799L12.7086 6.52929ZM14.0399 6.52929L13.5424 6.4799L13.5399 6.50447L13.5399 6.52917L14.0399 6.52929ZM15.1201 4.68615L14.7157 4.98027L14.7192 4.985L15.1201 4.68615ZM11.6276 4.68615L12.0263 4.98809L12.0322 4.97995L11.6276 4.68615ZM11.1302 6.70422L11.6302 6.70448V6.70422H11.1302ZM11.1287 9.71289L10.6287 9.71262V9.71289H11.1287ZM11.6069 11.6566L12.0112 11.3622L12.004 11.3529L11.6069 11.6566ZM15.1534 11.6566L14.7538 11.3559L14.7494 11.362L15.1534 11.6566ZM13.5415 9.92983C13.5789 10.3064 13.528 10.4999 13.484 10.5793C13.4661 10.6117 13.4532 10.619 13.4498 10.6209C13.4451 10.6236 13.4249 10.6339 13.3737 10.6339V11.6339C13.7874 11.6339 14.1492 11.4427 14.3591 11.0634C14.546 10.7255 14.5824 10.2923 14.5366 9.83106L13.5415 9.92983ZM13.3737 10.6339C13.3226 10.6339 13.3024 10.6236 13.2977 10.6209C13.2944 10.6191 13.2815 10.6118 13.2636 10.5795C13.2197 10.5 13.1688 10.3064 13.2062 9.92983L12.2111 9.83106C12.1653 10.2923 12.2017 10.7254 12.3884 11.0633C12.5981 11.4426 12.96 11.6339 13.3737 11.6339V10.6339ZM13.2086 9.88044V6.52929H12.2086V9.88044H13.2086ZM13.2062 6.4799C13.1686 6.10175 13.2205 5.91771 13.2607 5.84705C13.2763 5.81961 13.2869 5.81427 13.2899 5.81263C13.2953 5.80971 13.3181 5.79883 13.3739 5.79883V4.79883C12.9718 4.79883 12.6065 4.97444 12.3914 5.35272C12.2009 5.68785 12.1654 6.11904 12.2111 6.57867L13.2062 6.4799ZM13.3739 5.79883C13.4296 5.79883 13.4525 5.80971 13.4581 5.81271C13.4613 5.81444 13.472 5.81991 13.4876 5.84739C13.5278 5.91802 13.5799 6.10197 13.5424 6.4799L14.5375 6.57867C14.5831 6.11882 14.5474 5.68754 14.3565 5.35239C14.1411 4.97433 13.7758 4.79883 13.3739 4.79883V5.79883ZM13.5399 6.52917L13.5391 9.88032L14.5391 9.88057L14.5399 6.52941L13.5399 6.52917ZM16.119 6.69685C16.119 5.74167 15.9312 4.93762 15.521 4.38731L14.7192 4.985C14.9463 5.28957 15.119 5.84341 15.119 6.69685H16.119ZM15.5245 4.39206C14.9851 3.65053 14.1527 3.37048 13.3739 3.37048V4.37048C13.9255 4.37048 14.4132 4.56429 14.7158 4.98025L15.5245 4.39206ZM13.3739 3.37048C12.4962 3.37048 11.7564 3.65787 11.223 4.39236L12.0322 4.97995C12.3393 4.55695 12.7456 4.37048 13.3739 4.37048V3.37048ZM11.229 4.38428C10.8093 4.93845 10.6302 5.7546 10.6302 6.70422H11.6302C11.6302 5.84522 11.7984 5.28874 12.0262 4.98803L11.229 4.38428ZM10.6302 6.70396L10.6287 9.71262L11.6287 9.71315L11.6302 6.70448L10.6302 6.70396ZM10.6287 9.71289C10.6287 10.6548 10.7876 11.4085 11.2097 11.9604L12.004 11.3529C11.7786 11.0581 11.6287 10.5692 11.6287 9.71289H10.6287ZM11.2027 11.951C11.7252 12.6684 12.5631 13.0392 13.3739 13.0392V12.0392C12.8541 12.0392 12.3291 11.7989 12.011 11.3623L11.2027 11.951ZM13.3739 13.0392C14.1817 13.0392 15.0327 12.6705 15.5573 11.9513L14.7494 11.362C14.4323 11.7967 13.8965 12.0392 13.3739 12.0392V13.0392ZM15.5529 11.9573C15.969 11.4044 16.119 10.6504 16.119 9.71289H15.119C15.119 10.5736 14.975 11.0622 14.7539 11.3559L15.5529 11.9573ZM16.119 9.71289V6.69685H15.119V9.71289H16.119Z" fill="black" fill-opacity="0.2"/>
            <mask id="mask0_2_292" style="mask-type:luminance" maskUnits="userSpaceOnUse" x="5" y="0" width="7" height="13">
                <path fill-rule="evenodd" clip-rule="evenodd" d="M11.4613 1.08374H5.64044L5.64044 12.3939H11.4613V1.08374V1.08374Z" fill="white"/>
                <path fill-rule="evenodd" clip-rule="evenodd" d="M11.4613 1.08374H5.64044L5.64044 12.3939H11.4613V1.08374V1.08374Z" stroke="white"/>
            </mask>
            <g mask="url(#mask0_2_292)">
                <path fill-rule="evenodd" clip-rule="evenodd" d="M9.38243 7.78605V12.3939H7.71932V7.78605C7.71932 7.78605 5.99593 2.13676 5.64044 1.08374H7.3867L8.55378 5.49679L9.71505 1.08374H11.4613L9.38243 7.78605Z" fill="#E43071"/>
                <path fill-rule="evenodd" clip-rule="evenodd" d="M9.38243 7.78605V12.3939H7.71932V7.78605C7.71932 7.78605 5.99593 2.13676 5.64044 1.08374H7.3867L8.55378 5.49679L9.71505 1.08374H11.4613L9.38243 7.78605Z" stroke="black"/>
                <path fill-rule="evenodd" clip-rule="evenodd" d="M9.38243 7.78605V12.3939H7.71932V7.78605C7.71932 7.78605 5.99593 2.13676 5.64044 1.08374H7.3867L8.55378 5.49679L9.71505 1.08374H11.4613L9.38243 7.78605Z" stroke="black" stroke-opacity="0.2"/>
            </g>
            <path fill-rule="evenodd" clip-rule="evenodd" d="M15.9686 20.5422C15.7208 20.5422 15.4368 20.674 15.1851 20.9244L15.1834 26.0052C15.4351 26.2588 15.7208 26.3873 15.9686 26.3873C16.4027 26.3873 16.5987 26.0663 16.5987 25.2285V21.626C16.5987 20.7882 16.4027 20.5422 15.9686 20.5422" fill="#E43071"/>
            <path d="M15.9686 20.5422C15.7208 20.5422 15.4368 20.674 15.1851 20.9244L15.1834 26.0052C15.4351 26.2588 15.7208 26.3873 15.9686 26.3873C16.4027 26.3873 16.5987 26.0663 16.5987 25.2285V21.626C16.5987 20.7882 16.4027 20.5422 15.9686 20.5422" stroke="black"/>
            <path d="M15.9686 20.5422C15.7208 20.5422 15.4368 20.674 15.1851 20.9244L15.1834 26.0052C15.4351 26.2588 15.7208 26.3873 15.9686 26.3873C16.4027 26.3873 16.5987 26.0663 16.5987 25.2285V21.626C16.5987 20.7882 16.4027 20.5422 15.9686 20.5422" stroke="black" stroke-opacity="0.2"/>
            <path fill-rule="evenodd" clip-rule="evenodd" d="M22.1701 21.5493C22.1701 20.7749 21.9715 20.5422 21.4724 20.5422C20.9695 20.5422 20.7565 20.7558 20.7565 21.5388V22.4654L22.1701 22.4639V21.5493Z" fill="#E43071"/>
            <path fill-rule="evenodd" clip-rule="evenodd" d="M22.1701 21.5493C22.1701 20.7749 21.9715 20.5422 21.4724 20.5422C20.9695 20.5422 20.7565 20.7558 20.7565 21.5388V22.4654L22.1701 22.4639V21.5493Z" stroke="black"/>
            <path fill-rule="evenodd" clip-rule="evenodd" d="M22.1701 21.5493C22.1701 20.7749 21.9715 20.5422 21.4724 20.5422C20.9695 20.5422 20.7565 20.7558 20.7565 21.5388V22.4654L22.1701 22.4639V21.5493Z" stroke="black" stroke-opacity="0.2"/>
            <mask id="mask1_2_292" style="mask-type:luminance" maskUnits="userSpaceOnUse" x="0" y="12" width="27" height="20">
                <path fill-rule="evenodd" clip-rule="evenodd" d="M1 30.9993H25.8309V13.483H1V30.9993Z" fill="white"/>
                <path fill-rule="evenodd" clip-rule="evenodd" d="M1 30.9993H25.8309V13.483H1V30.9993Z" stroke="white"/>
            </mask>
            <g mask="url(#mask1_2_292)">
                <path fill-rule="evenodd" clip-rule="evenodd" d="M21.4864 26.3873C21.857 26.3873 22.073 26.1842 22.1589 25.7788C22.1729 25.6961 22.1702 25.3344 22.1702 24.7258H23.7501V24.9632C23.7501 25.452 23.7101 25.7979 23.6966 25.9497C23.6458 26.286 23.5276 26.5902 23.3445 26.8586C22.9281 27.4665 22.3103 27.7661 21.5237 27.7661C20.7362 27.7661 20.1368 27.4806 19.7014 26.9085C19.3816 26.4896 19.1766 25.8668 19.1766 24.9772V22.0449C19.1766 21.1501 19.3632 20.4585 19.683 20.035C20.1184 19.4621 20.7178 19.1589 21.4864 19.1589C22.2416 19.1589 22.841 19.4621 23.263 20.035C23.5777 20.4585 23.7527 21.1129 23.7527 22.0078L23.753 23.7205H20.7565V25.225C20.7513 25.9981 20.9696 26.3873 21.4864 26.3873ZM18.1787 25.1447C18.1787 25.919 18.1129 26.4654 18.0124 26.8203C17.8115 27.4428 17.3734 27.7661 16.774 27.7661C16.2387 27.7661 15.6902 27.4416 15.1872 26.8146L15.1851 27.6581H13.6883V16.4317H15.1851L15.1834 20.0918C15.6697 19.489 16.2201 19.1458 16.774 19.1458C17.3734 19.1458 17.7764 19.4947 17.9773 20.1217C18.0778 20.4585 18.1787 21.0006 18.1787 21.7936V25.1447ZM12.441 27.6581H10.861V26.7365C10.2621 27.4282 9.75433 27.7775 9.20085 27.7775C8.71522 27.7775 8.37794 27.5467 8.20914 27.1297C8.10653 26.8762 8.03377 26.4802 8.03377 25.8987V19.2802H9.61371V25.4798V26.0663C9.65055 26.3014 9.74967 26.3873 9.95058 26.3873C10.2529 26.3873 10.5266 26.1226 10.861 25.6474V19.2802H12.441V27.6581ZM6.45382 27.6581H4.79071V18.0235H3.04445V16.4335L8.28323 16.4317V18.0235H6.45382V27.6581ZM25.5829 17.2618C25.5829 17.2618 25.3403 15.5456 24.5958 14.7897C23.6516 13.7979 22.5931 13.7929 22.1078 13.735C18.6331 13.483 13.421 13.483 13.421 13.483H13.4101C13.4101 13.483 8.19775 13.483 4.72311 13.735C4.23765 13.7929 3.17958 13.7979 2.2351 14.7897C1.49062 15.5456 1.2483 17.2618 1.2483 17.2618C1.2483 17.2618 1 19.277 1 21.2925V23.1819C1 25.1972 1.2483 27.2125 1.2483 27.2125C1.2483 27.2125 1.49062 28.9287 2.2351 29.6844C3.17958 30.6765 4.42059 30.645 4.97307 30.7489C6.95957 30.9402 13.4155 30.9993 13.4155 30.9993C13.4155 30.9993 18.6331 30.9914 22.1078 30.7395C22.5931 30.6815 23.6516 30.6765 24.5958 29.6844C25.3403 28.9287 25.5829 27.2125 25.5829 27.2125C25.5829 27.2125 25.8309 25.1972 25.8309 23.1819V21.2925C25.8309 19.277 25.5829 17.2618 25.5829 17.2618Z" fill="#E43071"/>
                <path d="M22.1589 25.7788L22.6481 25.8824L22.6502 25.8723L22.6519 25.8621L22.1589 25.7788ZM22.1702 24.7258V24.2258H21.6702V24.7258H22.1702ZM23.7501 24.7258H24.2501V24.2258H23.7501V24.7258ZM23.6966 25.9497L24.191 26.0244L24.1933 26.0092L24.1947 25.9939L23.6966 25.9497ZM23.3445 26.8586L23.757 27.1412L23.7576 27.1403L23.3445 26.8586ZM19.7014 26.9085L20.0993 26.6057L20.0989 26.6051L19.7014 26.9085ZM19.683 20.035L19.2849 19.7324L19.284 19.7336L19.683 20.035ZM23.263 20.035L22.8604 20.3315L22.8617 20.3332L23.263 20.035ZM23.7527 22.0078L23.2527 22.0078L23.2527 22.0079L23.7527 22.0078ZM23.753 23.7205V24.2205H24.2531L24.253 23.7204L23.753 23.7205ZM20.7565 23.7205V23.2205H20.2565V23.7205H20.7565ZM20.7565 25.225L21.2565 25.2284V25.225H20.7565ZM18.0124 26.8203L18.4882 26.9739L18.491 26.9653L18.4935 26.9566L18.0124 26.8203ZM15.1872 26.8146L15.5772 26.5017L14.6907 25.3967L14.6872 26.8134L15.1872 26.8146ZM15.1851 27.6581V28.1581H15.6839L15.6851 27.6593L15.1851 27.6581ZM13.6883 27.6581H13.1883V28.1581H13.6883V27.6581ZM13.6883 16.4317V15.9317H13.1883V16.4317H13.6883ZM15.1851 16.4317L15.6851 16.432L15.6854 15.9317H15.1851V16.4317ZM15.1834 20.0918L14.6834 20.0915L14.6827 21.5087L15.5725 20.4057L15.1834 20.0918ZM17.9773 20.1217L18.4565 19.9786L18.4535 19.9691L17.9773 20.1217ZM12.441 27.6581V28.1581H12.941V27.6581H12.441ZM10.861 27.6581H10.361V28.1581H10.861V27.6581ZM10.861 26.7365H11.361V25.3953L10.4831 26.4092L10.861 26.7365ZM8.20914 27.1297L8.67261 26.9421L8.67261 26.9421L8.20914 27.1297ZM8.03377 19.2802V18.7802H7.53377V19.2802H8.03377ZM9.61371 19.2802H10.1137V18.7802H9.61371V19.2802ZM9.61371 26.0663H9.11371V26.1052L9.11974 26.1437L9.61371 26.0663ZM10.861 25.6474L11.2699 25.9352L11.361 25.8057V25.6474H10.861ZM10.861 19.2802V18.7802H10.361V19.2802H10.861ZM12.441 19.2802H12.941V18.7802H12.441V19.2802ZM6.45382 27.6581V28.1581H6.95382V27.6581H6.45382ZM4.79071 27.6581H4.29071V28.1581H4.79071V27.6581ZM4.79071 18.0235H5.29071V17.5235H4.79071V18.0235ZM3.04445 18.0235H2.54445V18.5235H3.04445V18.0235ZM3.04445 16.4335L3.04429 15.9335L2.54445 15.9336V16.4335H3.04445ZM8.28323 16.4317H8.78323V15.9315L8.28306 15.9317L8.28323 16.4317ZM8.28323 18.0235V18.5235H8.78323V18.0235H8.28323ZM6.45382 18.0235V17.5235H5.95382V18.0235H6.45382ZM25.5829 17.2618L26.0793 17.2007L26.078 17.1918L25.5829 17.2618ZM24.5958 14.7897L24.2336 15.1345L24.2396 15.1406L24.5958 14.7897ZM22.1078 13.735L22.1671 13.2385L22.1555 13.2371L22.1439 13.2363L22.1078 13.735ZM4.72311 13.735L4.68695 13.2363L4.67536 13.2371L4.66382 13.2385L4.72311 13.735ZM2.2351 14.7897L2.59138 15.1406L2.5972 15.1345L2.2351 14.7897ZM1.2483 17.2618L0.753135 17.1919L0.752054 17.2006L1.2483 17.2618ZM1.2483 27.2125L0.751976 27.2737L0.753212 27.2824L1.2483 27.2125ZM2.2351 29.6844L2.5973 29.3396L2.59131 29.3336L2.2351 29.6844ZM4.97307 30.7489L4.8806 31.2403L4.90273 31.2445L4.92515 31.2466L4.97307 30.7489ZM13.4155 30.9993L13.4109 31.4993L13.4162 31.4993L13.4155 30.9993ZM22.1078 30.7395L22.1439 31.2382L22.1556 31.2374L22.1672 31.236L22.1078 30.7395ZM24.5958 29.6844L24.2395 29.3335L24.2336 29.3397L24.5958 29.6844ZM25.5829 27.2125L26.0781 27.2826L26.0792 27.2736L25.5829 27.2125ZM21.4864 26.8873C21.7675 26.8873 22.0441 26.8076 22.2666 26.6043C22.4809 26.4086 22.5921 26.1464 22.6481 25.8824L21.6698 25.6751C21.6398 25.8166 21.6001 25.8587 21.5922 25.8659C21.5886 25.8692 21.584 25.8727 21.573 25.8765C21.5603 25.8808 21.5336 25.8873 21.4864 25.8873V26.8873ZM22.6519 25.8621C22.662 25.8026 22.6648 25.7311 22.6663 25.6805C22.6683 25.6191 22.6693 25.5421 22.6698 25.4526C22.6709 25.2737 22.6702 25.0277 22.6702 24.7258H21.6702C21.6702 25.0325 21.6709 25.2717 21.6698 25.4465C21.6693 25.5338 21.6683 25.6008 21.6668 25.6494C21.665 25.7089 21.6628 25.7136 21.6659 25.6954L22.6519 25.8621ZM22.1702 25.2258H23.7501V24.2258H22.1702V25.2258ZM23.2501 24.7258V24.9632H24.2501V24.7258H23.2501ZM23.2501 24.9632C23.2501 25.4251 23.2127 25.7463 23.1986 25.9055L24.1947 25.9939C24.2075 25.8496 24.2501 25.479 24.2501 24.9632H23.2501ZM23.2022 25.8751C23.1622 26.1401 23.0705 26.373 22.9315 26.5768L23.7576 27.1403C23.9846 26.8075 24.1294 26.432 24.191 26.0244L23.2022 25.8751ZM22.9321 26.576C22.6194 27.0324 22.165 27.2661 21.5237 27.2661V28.2661C22.4556 28.2661 23.2368 27.9006 23.757 27.1412L22.9321 26.576ZM21.5237 27.2661C20.8778 27.2661 20.4316 27.0424 20.0993 26.6057L19.3035 27.2113C19.8419 27.9187 20.5946 28.2661 21.5237 28.2661V27.2661ZM20.0989 26.6051C19.8645 26.2981 19.6766 25.7931 19.6766 24.9772H18.6766C18.6766 25.9406 18.8988 26.6811 19.304 27.2119L20.0989 26.6051ZM19.6766 24.9772V22.0449H18.6766V24.9772H19.6766ZM19.6766 22.0449C19.6766 21.2026 19.855 20.6368 20.082 20.3363L19.284 19.7336C18.8713 20.2801 18.6766 21.0977 18.6766 22.0449H19.6766ZM20.0811 20.3375C20.42 19.8915 20.871 19.6589 21.4864 19.6589V18.6589C20.5647 18.6589 19.8167 19.0326 19.2849 19.7324L20.0811 20.3375ZM21.4864 19.6589C22.0882 19.6589 22.5359 19.8909 22.8604 20.3315L23.6656 19.7384C23.1462 19.0333 22.395 18.6589 21.4864 18.6589V19.6589ZM22.8617 20.3332C23.0855 20.6344 23.2527 21.1645 23.2527 22.0078H24.2527C24.2527 21.0613 24.0699 20.2825 23.6643 19.7367L22.8617 20.3332ZM23.2527 22.0079L23.253 23.7206L24.253 23.7204L24.2527 22.0077L23.2527 22.0079ZM23.753 23.2205H20.7565V24.2205H23.753V23.2205ZM20.2565 23.7205V25.225H21.2565V23.7205H20.2565ZM20.2565 25.2216C20.2537 25.6366 20.3067 26.042 20.499 26.3568C20.72 26.7185 21.0774 26.8873 21.4864 26.8873V25.8873C21.42 25.8873 21.3923 25.875 21.3849 25.8712C21.3801 25.8687 21.3691 25.8628 21.3523 25.8354C21.3076 25.7622 21.2541 25.5865 21.2565 25.2284L20.2565 25.2216ZM17.6787 25.1447C17.6787 25.8986 17.6138 26.3928 17.5313 26.684L18.4935 26.9566C18.612 26.5381 18.6787 25.9394 18.6787 25.1447H17.6787ZM17.5366 26.6667C17.4611 26.9004 17.3533 27.0428 17.2409 27.128C17.1301 27.2118 16.9807 27.2661 16.774 27.2661V28.2661C17.1667 28.2661 17.5361 28.1587 17.8444 27.9253C18.1511 27.6931 18.3627 27.3627 18.4882 26.9739L17.5366 26.6667ZM16.774 27.2661C16.4513 27.2661 16.0315 27.068 15.5772 26.5017L14.7972 27.1275C15.3489 27.8152 16.0261 28.2661 16.774 28.2661V27.2661ZM14.6872 26.8134L14.6851 27.6568L15.6851 27.6593L15.6872 26.8158L14.6872 26.8134ZM15.1851 27.1581H13.6883V28.1581H15.1851V27.1581ZM14.1883 27.6581V16.4317H13.1883V27.6581H14.1883ZM13.6883 16.9317H15.1851V15.9317H13.6883V16.9317ZM14.6851 16.4315L14.6834 20.0915L15.6834 20.092L15.6851 16.432L14.6851 16.4315ZM15.5725 20.4057C16.0128 19.8599 16.435 19.6458 16.774 19.6458V18.6458C16.0053 18.6458 15.3265 19.118 14.7942 19.7778L15.5725 20.4057ZM16.774 19.6458C16.9704 19.6458 17.1051 19.7004 17.207 19.7844C17.3148 19.8733 17.4214 20.0253 17.5011 20.2742L18.4535 19.9691C18.3323 19.591 18.1369 19.2551 17.8432 19.0129C17.5435 18.7657 17.177 18.6458 16.774 18.6458V19.6458ZM17.4982 20.2647C17.5831 20.5492 17.6787 21.0425 17.6787 21.7936H18.6787C18.6787 20.9587 18.5725 20.3677 18.4564 19.9787L17.4982 20.2647ZM17.6787 21.7936V25.1447H18.6787V21.7936H17.6787ZM12.441 27.1581H10.861V28.1581H12.441V27.1581ZM11.361 27.6581V26.7365H10.361V27.6581H11.361ZM10.4831 26.4092C9.90078 27.0816 9.52181 27.2775 9.20085 27.2775V28.2775C9.98685 28.2775 10.6234 27.7748 11.239 27.0638L10.4831 26.4092ZM9.20085 27.2775C9.03862 27.2775 8.93281 27.2398 8.86194 27.1929C8.7918 27.1466 8.72468 27.0707 8.67261 26.9421L7.74567 27.3173C7.8624 27.6057 8.04833 27.8538 8.31043 28.0271C8.57181 28.1999 8.87745 28.2775 9.20085 28.2775V27.2775ZM8.67261 26.9421C8.60346 26.7712 8.53377 26.4467 8.53377 25.8987H7.53377C7.53377 26.5138 7.60959 26.9811 7.74567 27.3173L8.67261 26.9421ZM8.53377 25.8987V19.2802H7.53377V25.8987H8.53377ZM8.03377 19.7802H9.61371V18.7802H8.03377V19.7802ZM9.11371 19.2802V25.4798H10.1137V19.2802H9.11371ZM9.11371 25.4798V26.0663H10.1137V25.4798H9.11371ZM9.11974 26.1437C9.14532 26.307 9.20566 26.5183 9.37946 26.6805C9.56293 26.8518 9.78404 26.8873 9.95058 26.8873V25.8873C9.93401 25.8873 9.94254 25.8853 9.96536 25.8923C9.99192 25.9005 10.028 25.918 10.0618 25.9495C10.1266 26.0099 10.1189 26.0607 10.1077 25.9889L9.11974 26.1437ZM9.95058 26.8873C10.2606 26.8873 10.5153 26.7481 10.7173 26.5768C10.9144 26.4095 11.0956 26.1828 11.2699 25.9352L10.4522 25.3596C10.292 25.5871 10.1691 25.7304 10.0703 25.8143C10.0233 25.8542 9.99091 25.8726 9.97226 25.8808C9.96335 25.8847 9.95781 25.8862 9.95522 25.8867C9.95277 25.8873 9.95148 25.8873 9.95058 25.8873V26.8873ZM11.361 25.6474V19.2802H10.361V25.6474H11.361ZM10.861 19.7802H12.441V18.7802H10.861V19.7802ZM11.941 19.2802V27.6581H12.941V19.2802H11.941ZM6.45382 27.1581H4.79071V28.1581H6.45382V27.1581ZM5.29071 27.6581V18.0235H4.29071V27.6581H5.29071ZM4.79071 17.5235H3.04445V18.5235H4.79071V17.5235ZM3.54445 18.0235V16.4335H2.54445V18.0235H3.54445ZM3.04462 16.9335L8.2834 16.9317L8.28306 15.9317L3.04429 15.9335L3.04462 16.9335ZM7.78323 16.4317V18.0235H8.78323V16.4317H7.78323ZM8.28323 17.5235H6.45382V18.5235H8.28323V17.5235ZM5.95382 18.0235V27.6581H6.95382V18.0235H5.95382ZM25.5829 17.2618C26.078 17.1918 26.078 17.1917 26.078 17.1916C26.078 17.1916 26.0779 17.1915 26.0779 17.1914C26.0779 17.1912 26.0779 17.191 26.0779 17.1908C26.0778 17.1903 26.0777 17.1898 26.0776 17.1891C26.0774 17.1878 26.0772 17.1861 26.0769 17.184C26.0762 17.1797 26.0754 17.1738 26.0742 17.1664C26.0719 17.1516 26.0686 17.1306 26.0642 17.1042C26.0554 17.0512 26.0421 16.9761 26.0238 16.8842C25.9873 16.7009 25.9303 16.4478 25.8483 16.1683C25.691 15.6326 25.4167 14.9106 24.952 14.4389L24.2396 15.1406C24.5194 15.4247 24.7386 15.9387 24.8888 16.4501C24.9605 16.6942 25.0107 16.9174 25.043 17.0794C25.0591 17.1602 25.0705 17.2251 25.0779 17.269C25.0815 17.2909 25.0842 17.3075 25.0858 17.3182C25.0866 17.3236 25.0872 17.3274 25.0875 17.3297C25.0877 17.3309 25.0878 17.3316 25.0879 17.332C25.0879 17.3321 25.0879 17.3322 25.0879 17.3322C25.0879 17.3322 25.0879 17.3321 25.0879 17.3321C25.0879 17.332 25.0879 17.332 25.0879 17.3319C25.0879 17.3319 25.0878 17.3318 25.5829 17.2618ZM24.9579 14.445C23.8695 13.3015 22.6165 13.2922 22.1671 13.2385L22.0485 14.2314C22.5697 14.2937 23.4338 14.2942 24.2336 15.1345L24.9579 14.445ZM22.1439 13.2363C20.3926 13.1093 18.2098 13.0461 16.4704 13.0146C15.5995 12.9988 14.8376 12.9909 14.2933 12.987C14.0211 12.985 13.8033 12.984 13.6534 12.9835C13.5784 12.9833 13.5204 12.9832 13.4811 12.9831C13.4615 12.9831 13.4465 12.983 13.4364 12.983C13.4314 12.983 13.4275 12.983 13.425 12.983C13.4237 12.983 13.4227 12.983 13.422 12.983C13.4217 12.983 13.4214 12.983 13.4213 12.983C13.4212 12.983 13.4211 12.983 13.4211 12.983C13.421 12.983 13.421 12.983 13.421 13.483C13.421 13.983 13.421 13.983 13.421 13.983C13.421 13.983 13.4211 13.983 13.4212 13.983C13.4213 13.983 13.4215 13.983 13.4218 13.983C13.4224 13.983 13.4233 13.983 13.4246 13.983C13.427 13.983 13.4307 13.983 13.4356 13.983C13.4455 13.983 13.4602 13.9831 13.4796 13.9831C13.5183 13.9832 13.5757 13.9833 13.6501 13.9835C13.7988 13.984 14.0153 13.985 14.286 13.987C14.8276 13.9909 15.5858 13.9987 16.4523 14.0144C18.1876 14.0459 20.3483 14.1087 22.0716 14.2336L22.1439 13.2363ZM13.421 12.983H13.4101V13.983H13.421V12.983ZM13.4101 13.483C13.4101 12.983 13.41 12.983 13.41 12.983C13.41 12.983 13.4099 12.983 13.4098 12.983C13.4096 12.983 13.4094 12.983 13.409 12.983C13.4084 12.983 13.4074 12.983 13.4061 12.983C13.4035 12.983 13.3997 12.983 13.3946 12.983C13.3845 12.983 13.3696 12.9831 13.3499 12.9831C13.3106 12.9832 13.2526 12.9833 13.1777 12.9835C13.0278 12.984 12.8099 12.985 12.5377 12.987C11.9934 12.9909 11.2314 12.9988 10.3605 13.0146C8.62108 13.0461 6.43829 13.1093 4.68695 13.2363L4.75926 14.2336C6.48256 14.1087 8.64326 14.0459 10.3786 14.0144C11.2452 13.9987 12.0034 13.9909 12.545 13.987C12.8157 13.985 13.0323 13.984 13.181 13.9835C13.2553 13.9833 13.3127 13.9832 13.3515 13.9831C13.3709 13.9831 13.3856 13.983 13.3954 13.983C13.4003 13.983 13.404 13.983 13.4065 13.983C13.4077 13.983 13.4086 13.983 13.4092 13.983C13.4095 13.983 13.4097 13.983 13.4099 13.983C13.41 13.983 13.41 13.983 13.41 13.983C13.4101 13.983 13.4101 13.983 13.4101 13.483ZM4.66382 13.2385C4.21413 13.2922 2.96179 13.3015 1.87301 14.4449L2.5972 15.1345C3.39738 14.2942 4.26117 14.2937 4.7824 14.2314L4.66382 13.2385ZM1.87888 14.4389C1.41421 14.9106 1.13997 15.6327 0.982752 16.1684C0.900753 16.4478 0.843865 16.701 0.807401 16.8843C0.789115 16.9762 0.775825 17.0513 0.766991 17.1043C0.762571 17.1307 0.759258 17.1517 0.756985 17.1665C0.755849 17.1739 0.754972 17.1798 0.754346 17.1841C0.754033 17.1862 0.753782 17.1879 0.753594 17.1892C0.753499 17.1899 0.753421 17.1904 0.753357 17.1909C0.753325 17.1911 0.753297 17.1913 0.753273 17.1915C0.753261 17.1915 0.753246 17.1917 0.75324 17.1917C0.753225 17.1918 0.753212 17.1919 1.2483 17.2618C1.74339 17.3317 1.74338 17.3318 1.74337 17.3319C1.74337 17.3319 1.74336 17.3319 1.74335 17.332C1.74334 17.332 1.74334 17.3321 1.74333 17.3321C1.74333 17.3321 1.74334 17.332 1.74337 17.3319C1.74342 17.3315 1.74352 17.3308 1.74369 17.3296C1.74403 17.3273 1.7446 17.3235 1.74542 17.3181C1.74706 17.3075 1.74968 17.2908 1.75334 17.2689C1.76067 17.225 1.77213 17.1601 1.78819 17.0794C1.82043 16.9173 1.87065 16.6941 1.94229 16.45C2.09235 15.9387 2.31151 15.4247 2.59133 15.1406L1.87888 14.4389ZM1.2483 17.2618C0.752054 17.2006 0.75205 17.2007 0.752044 17.2007C0.752041 17.2008 0.752034 17.2008 0.752028 17.2009C0.752016 17.201 0.752 17.2011 0.75198 17.2013C0.75194 17.2016 0.751885 17.202 0.751816 17.2026C0.751677 17.2037 0.751479 17.2053 0.751225 17.2074C0.750716 17.2116 0.749979 17.2178 0.74903 17.2257C0.747131 17.2416 0.744383 17.265 0.740906 17.2952C0.733952 17.3557 0.724082 17.4438 0.71227 17.5557C0.68865 17.7793 0.657232 18.0981 0.625829 18.4804C0.563132 19.2437 0.5 20.2661 0.5 21.2925H1.5C1.5 20.3034 1.56102 19.3104 1.62247 18.5623C1.65315 18.1888 1.6838 17.8779 1.70674 17.6607C1.7182 17.5521 1.72773 17.4671 1.73436 17.4094C1.73767 17.3806 1.74026 17.3587 1.742 17.3441C1.74287 17.3368 1.74352 17.3314 1.74395 17.3278C1.74417 17.326 1.74433 17.3247 1.74443 17.3239C1.74448 17.3235 1.74451 17.3232 1.74453 17.3231C1.74454 17.323 1.74455 17.3229 1.74455 17.3229C1.74455 17.3229 1.74455 17.3229 1.74455 17.3229C1.74455 17.3229 1.74455 17.3229 1.2483 17.2618ZM0.5 21.2925V23.1819H1.5V21.2925H0.5ZM0.5 23.1819C0.5 24.2082 0.563132 25.2306 0.625829 25.9939C0.657232 26.3762 0.68865 26.695 0.712269 26.9187C0.724082 27.0305 0.733952 27.1187 0.740906 27.1791C0.744383 27.2094 0.747131 27.2327 0.74903 27.2486C0.749979 27.2566 0.750716 27.2627 0.751225 27.2669C0.751479 27.269 0.751677 27.2706 0.751816 27.2717C0.751885 27.2723 0.75194 27.2728 0.75198 27.2731C0.751999 27.2732 0.752016 27.2734 0.752028 27.2735C0.752034 27.2735 0.752041 27.2736 0.752044 27.2736C0.752049 27.2736 0.752054 27.2737 1.2483 27.2125C1.74455 27.1514 1.74455 27.1514 1.74455 27.1514C1.74455 27.1514 1.74455 27.1514 1.74455 27.1514C1.74455 27.1514 1.74454 27.1514 1.74453 27.1513C1.74451 27.1511 1.74448 27.1508 1.74443 27.1504C1.74433 27.1496 1.74417 27.1483 1.74395 27.1465C1.74352 27.143 1.74287 27.1375 1.742 27.1302C1.74026 27.1156 1.73767 27.0937 1.73436 27.0649C1.72773 27.0073 1.7182 26.9222 1.70674 26.8137C1.6838 26.5965 1.65315 26.2855 1.62247 25.912C1.56102 25.1639 1.5 24.171 1.5 23.1819H0.5ZM1.2483 27.2125C0.753212 27.2824 0.753226 27.2825 0.75324 27.2826C0.753246 27.2827 0.753261 27.2828 0.753273 27.2829C0.753298 27.2831 0.753326 27.2832 0.753357 27.2835C0.753421 27.2839 0.7535 27.2845 0.753594 27.2851C0.753783 27.2864 0.754033 27.2882 0.754346 27.2903C0.754972 27.2945 0.755849 27.3004 0.756986 27.3078C0.759259 27.3226 0.762572 27.3436 0.766992 27.3701C0.775826 27.423 0.789115 27.4981 0.807402 27.59C0.843866 27.7734 0.900754 28.0265 0.982755 28.3059C1.13997 28.8416 1.41422 29.5636 1.8789 30.0353L2.59131 29.3336C2.3115 29.0495 2.09235 28.5356 1.94228 28.0243C1.87065 27.7802 1.82042 27.557 1.78819 27.395C1.77213 27.3142 1.76067 27.2493 1.75334 27.2054C1.74968 27.1835 1.74706 27.1669 1.74542 27.1562C1.7446 27.1508 1.74403 27.147 1.74369 27.1447C1.74352 27.1436 1.74342 27.1428 1.74337 27.1425C1.74334 27.1423 1.74333 27.1422 1.74333 27.1422C1.74334 27.1423 1.74334 27.1423 1.74335 27.1424C1.74336 27.1424 1.74337 27.1425 1.74337 27.1425C1.74338 27.1426 1.74339 27.1426 1.2483 27.2125ZM1.87296 30.0292C2.96206 31.1732 4.45463 31.1601 4.8806 31.2403L5.06554 30.2576C4.38655 30.1298 3.3971 30.1799 2.59724 29.3397L1.87296 30.0292ZM4.92515 31.2466C5.94114 31.3445 8.07268 31.4072 9.92883 31.4457C10.8616 31.4651 11.7319 31.4785 12.369 31.487C12.6876 31.4913 12.9479 31.4943 13.1287 31.4963C13.2191 31.4973 13.2896 31.498 13.3375 31.4985C13.3614 31.4988 13.3798 31.4989 13.3921 31.4991C13.3983 31.4991 13.403 31.4992 13.4061 31.4992C13.4077 31.4992 13.4089 31.4992 13.4097 31.4992C13.4101 31.4992 13.4104 31.4992 13.4106 31.4992C13.4107 31.4992 13.4108 31.4992 13.4108 31.4992C13.4109 31.4992 13.4109 31.4992 13.4155 30.9993C13.4201 30.4993 13.42 30.4993 13.42 30.4993C13.42 30.4993 13.4199 30.4993 13.4198 30.4993C13.4196 30.4993 13.4193 30.4993 13.4189 30.4993C13.4182 30.4993 13.417 30.4993 13.4155 30.4992C13.4124 30.4992 13.4078 30.4992 13.4017 30.4991C13.3895 30.499 13.3713 30.4988 13.3475 30.4986C13.2999 30.4981 13.2297 30.4974 13.1397 30.4964C12.9597 30.4944 12.7001 30.4913 12.3824 30.4871C11.7469 30.4786 10.8792 30.4652 9.9496 30.4459C8.08117 30.4071 5.9915 30.3447 5.02099 30.2512L4.92515 31.2466ZM13.4155 30.9993C13.4162 31.4993 13.4163 31.4993 13.4163 31.4993C13.4164 31.4993 13.4164 31.4993 13.4165 31.4993C13.4167 31.4993 13.417 31.4993 13.4173 31.4993C13.418 31.4993 13.4189 31.4993 13.4202 31.4993C13.4228 31.4993 13.4266 31.4992 13.4317 31.4992C13.4418 31.4992 13.4568 31.4992 13.4765 31.4991C13.5158 31.499 13.5738 31.4988 13.6488 31.4984C13.7989 31.4977 14.0169 31.4964 14.2893 31.4941C14.8341 31.4894 15.5967 31.4805 16.4682 31.4638C18.2089 31.4303 20.3928 31.3652 22.1439 31.2382L22.0716 30.2409C20.348 30.3658 18.1857 30.4305 16.449 30.4639C15.5818 30.4806 14.8228 30.4895 14.2807 30.4941C14.0097 30.4964 13.793 30.4977 13.6441 30.4984C13.5697 30.4988 13.5122 30.499 13.4734 30.4991C13.454 30.4992 13.4393 30.4992 13.4294 30.4992C13.4245 30.4992 13.4208 30.4993 13.4183 30.4993C13.4171 30.4993 13.4162 30.4993 13.4156 30.4993C13.4153 30.4993 13.4151 30.4993 13.4149 30.4993C13.4149 30.4993 13.4148 30.4993 13.4148 30.4993C13.4147 30.4993 13.4147 30.4993 13.4155 30.9993ZM22.1672 31.236C22.6165 31.1823 23.8695 31.1729 24.958 30.0291L24.2336 29.3397C23.4338 30.1802 22.5697 30.1807 22.0484 30.2431L22.1672 31.236ZM24.952 30.0353C25.4166 29.5636 25.691 28.8416 25.8483 28.306C25.9303 28.0266 25.9873 27.7734 26.0238 27.5901C26.0421 27.4982 26.0554 27.4231 26.0642 27.3702C26.0686 27.3437 26.0719 27.3227 26.0742 27.3079C26.0754 27.3005 26.0762 27.2946 26.0769 27.2904C26.0772 27.2882 26.0774 27.2865 26.0776 27.2852C26.0777 27.2846 26.0778 27.284 26.0779 27.2836C26.0779 27.2833 26.0779 27.2831 26.0779 27.283C26.0779 27.2829 26.078 27.2828 26.078 27.2827C26.078 27.2826 26.078 27.2825 25.5829 27.2125C25.0878 27.1425 25.0879 27.1425 25.0879 27.1424C25.0879 27.1424 25.0879 27.1423 25.0879 27.1423C25.0879 27.1422 25.0879 27.1422 25.0879 27.1421C25.0879 27.1421 25.0879 27.1422 25.0879 27.1424C25.0878 27.1427 25.0877 27.1435 25.0875 27.1446C25.0872 27.1469 25.0866 27.1507 25.0858 27.1561C25.0842 27.1668 25.0815 27.1834 25.0779 27.2053C25.0705 27.2492 25.0591 27.3141 25.043 27.3949C25.0107 27.5569 24.9605 27.7801 24.8888 28.0242C24.7386 28.5355 24.5194 29.0495 24.2396 29.3336L24.952 30.0353ZM25.5829 27.2125C26.0792 27.2736 26.0792 27.2736 26.0792 27.2735C26.0792 27.2735 26.0792 27.2734 26.0792 27.2734C26.0792 27.2733 26.0792 27.2732 26.0793 27.273C26.0793 27.2727 26.0793 27.2722 26.0794 27.2717C26.0796 27.2705 26.0798 27.2689 26.08 27.2668C26.0805 27.2626 26.0812 27.2565 26.0822 27.2485C26.0841 27.2326 26.0868 27.2093 26.0903 27.1791C26.0973 27.1186 26.1071 27.0305 26.1189 26.9186C26.1425 26.695 26.1739 26.3762 26.2052 25.9939C26.2678 25.2306 26.3309 24.2082 26.3309 23.1819H25.3309C25.3309 24.171 25.27 25.1639 25.2086 25.9121C25.1779 26.2855 25.1473 26.5965 25.1244 26.8137C25.113 26.9223 25.1035 27.0073 25.0968 27.065C25.0935 27.0938 25.0909 27.1157 25.0892 27.1303C25.0883 27.1376 25.0877 27.143 25.0873 27.1466C25.087 27.1484 25.0869 27.1497 25.0868 27.1505C25.0867 27.1509 25.0867 27.1512 25.0867 27.1514C25.0867 27.1514 25.0867 27.1515 25.0867 27.1515C25.0867 27.1515 25.0867 27.1515 25.0867 27.1515C25.0867 27.1515 25.0867 27.1515 25.5829 27.2125ZM26.3309 23.1819V21.2925H25.3309V23.1819H26.3309ZM26.3309 21.2925C26.3309 20.2662 26.2678 19.2438 26.2052 18.4805C26.1739 18.0982 26.1425 17.7794 26.1189 17.5557C26.1071 17.4439 26.0973 17.3557 26.0903 17.2953C26.0868 17.265 26.0841 17.2417 26.0822 17.2258C26.0812 17.2178 26.0805 17.2117 26.08 17.2075C26.0798 17.2054 26.0796 17.2038 26.0794 17.2027C26.0793 17.2021 26.0793 17.2017 26.0793 17.2013C26.0792 17.2012 26.0792 17.201 26.0792 17.2009C26.0792 17.2009 26.0792 17.2008 26.0792 17.2008C26.0792 17.2008 26.0792 17.2007 25.5829 17.2618C25.0867 17.3229 25.0867 17.3228 25.0867 17.3228C25.0867 17.3228 25.0867 17.3228 25.0867 17.3228C25.0867 17.3229 25.0867 17.3229 25.0867 17.323C25.0867 17.3232 25.0867 17.3234 25.0868 17.3239C25.0869 17.3247 25.087 17.326 25.0873 17.3277C25.0877 17.3313 25.0883 17.3367 25.0892 17.344C25.0909 17.3586 25.0935 17.3806 25.0968 17.4094C25.1035 17.467 25.113 17.552 25.1244 17.6606C25.1473 17.8778 25.1779 18.1888 25.2086 18.5622C25.27 19.3104 25.3309 20.3033 25.3309 21.2925H26.3309Z" fill="black"/>
                <path d="M22.1589 25.7788L22.6481 25.8824L22.6502 25.8723L22.6519 25.8621L22.1589 25.7788ZM22.1702 24.7258V24.2258H21.6702V24.7258H22.1702ZM23.7501 24.7258H24.2501V24.2258H23.7501V24.7258ZM23.6966 25.9497L24.191 26.0244L24.1933 26.0092L24.1947 25.9939L23.6966 25.9497ZM23.3445 26.8586L23.757 27.1412L23.7576 27.1403L23.3445 26.8586ZM19.7014 26.9085L20.0993 26.6057L20.0989 26.6051L19.7014 26.9085ZM19.683 20.035L19.2849 19.7324L19.284 19.7336L19.683 20.035ZM23.263 20.035L22.8604 20.3315L22.8617 20.3332L23.263 20.035ZM23.7527 22.0078L23.2527 22.0078L23.2527 22.0079L23.7527 22.0078ZM23.753 23.7205V24.2205H24.2531L24.253 23.7204L23.753 23.7205ZM20.7565 23.7205V23.2205H20.2565V23.7205H20.7565ZM20.7565 25.225L21.2565 25.2284V25.225H20.7565ZM18.0124 26.8203L18.4882 26.9739L18.491 26.9653L18.4935 26.9566L18.0124 26.8203ZM15.1872 26.8146L15.5772 26.5017L14.6907 25.3967L14.6872 26.8134L15.1872 26.8146ZM15.1851 27.6581V28.1581H15.6839L15.6851 27.6593L15.1851 27.6581ZM13.6883 27.6581H13.1883V28.1581H13.6883V27.6581ZM13.6883 16.4317V15.9317H13.1883V16.4317H13.6883ZM15.1851 16.4317L15.6851 16.432L15.6854 15.9317H15.1851V16.4317ZM15.1834 20.0918L14.6834 20.0915L14.6827 21.5087L15.5725 20.4057L15.1834 20.0918ZM17.9773 20.1217L18.4565 19.9786L18.4535 19.9691L17.9773 20.1217ZM12.441 27.6581V28.1581H12.941V27.6581H12.441ZM10.861 27.6581H10.361V28.1581H10.861V27.6581ZM10.861 26.7365H11.361V25.3953L10.4831 26.4092L10.861 26.7365ZM8.20914 27.1297L8.67261 26.9421L8.67261 26.9421L8.20914 27.1297ZM8.03377 19.2802V18.7802H7.53377V19.2802H8.03377ZM9.61371 19.2802H10.1137V18.7802H9.61371V19.2802ZM9.61371 26.0663H9.11371V26.1052L9.11974 26.1437L9.61371 26.0663ZM10.861 25.6474L11.2699 25.9352L11.361 25.8057V25.6474H10.861ZM10.861 19.2802V18.7802H10.361V19.2802H10.861ZM12.441 19.2802H12.941V18.7802H12.441V19.2802ZM6.45382 27.6581V28.1581H6.95382V27.6581H6.45382ZM4.79071 27.6581H4.29071V28.1581H4.79071V27.6581ZM4.79071 18.0235H5.29071V17.5235H4.79071V18.0235ZM3.04445 18.0235H2.54445V18.5235H3.04445V18.0235ZM3.04445 16.4335L3.04429 15.9335L2.54445 15.9336V16.4335H3.04445ZM8.28323 16.4317H8.78323V15.9315L8.28306 15.9317L8.28323 16.4317ZM8.28323 18.0235V18.5235H8.78323V18.0235H8.28323ZM6.45382 18.0235V17.5235H5.95382V18.0235H6.45382ZM25.5829 17.2618L26.0793 17.2007L26.078 17.1918L25.5829 17.2618ZM24.5958 14.7897L24.2336 15.1345L24.2396 15.1406L24.5958 14.7897ZM22.1078 13.735L22.1671 13.2385L22.1555 13.2371L22.1439 13.2363L22.1078 13.735ZM4.72311 13.735L4.68695 13.2363L4.67536 13.2371L4.66382 13.2385L4.72311 13.735ZM2.2351 14.7897L2.59138 15.1406L2.5972 15.1345L2.2351 14.7897ZM1.2483 17.2618L0.753135 17.1919L0.752054 17.2006L1.2483 17.2618ZM1.2483 27.2125L0.751976 27.2737L0.753212 27.2824L1.2483 27.2125ZM2.2351 29.6844L2.5973 29.3396L2.59131 29.3336L2.2351 29.6844ZM4.97307 30.7489L4.8806 31.2403L4.90273 31.2445L4.92515 31.2466L4.97307 30.7489ZM13.4155 30.9993L13.4109 31.4993L13.4162 31.4993L13.4155 30.9993ZM22.1078 30.7395L22.1439 31.2382L22.1556 31.2374L22.1672 31.236L22.1078 30.7395ZM24.5958 29.6844L24.2395 29.3335L24.2336 29.3397L24.5958 29.6844ZM25.5829 27.2125L26.0781 27.2826L26.0792 27.2736L25.5829 27.2125ZM21.4864 26.8873C21.7675 26.8873 22.0441 26.8076 22.2666 26.6043C22.4809 26.4086 22.5921 26.1464 22.6481 25.8824L21.6698 25.6751C21.6398 25.8166 21.6001 25.8587 21.5922 25.8659C21.5886 25.8692 21.584 25.8727 21.573 25.8765C21.5603 25.8808 21.5336 25.8873 21.4864 25.8873V26.8873ZM22.6519 25.8621C22.662 25.8026 22.6648 25.7311 22.6663 25.6805C22.6683 25.6191 22.6693 25.5421 22.6698 25.4526C22.6709 25.2737 22.6702 25.0277 22.6702 24.7258H21.6702C21.6702 25.0325 21.6709 25.2717 21.6698 25.4465C21.6693 25.5338 21.6683 25.6008 21.6668 25.6494C21.665 25.7089 21.6628 25.7136 21.6659 25.6954L22.6519 25.8621ZM22.1702 25.2258H23.7501V24.2258H22.1702V25.2258ZM23.2501 24.7258V24.9632H24.2501V24.7258H23.2501ZM23.2501 24.9632C23.2501 25.4251 23.2127 25.7463 23.1986 25.9055L24.1947 25.9939C24.2075 25.8496 24.2501 25.479 24.2501 24.9632H23.2501ZM23.2022 25.8751C23.1622 26.1401 23.0705 26.373 22.9315 26.5768L23.7576 27.1403C23.9846 26.8075 24.1294 26.432 24.191 26.0244L23.2022 25.8751ZM22.9321 26.576C22.6194 27.0324 22.165 27.2661 21.5237 27.2661V28.2661C22.4556 28.2661 23.2368 27.9006 23.757 27.1412L22.9321 26.576ZM21.5237 27.2661C20.8778 27.2661 20.4316 27.0424 20.0993 26.6057L19.3035 27.2113C19.8419 27.9187 20.5946 28.2661 21.5237 28.2661V27.2661ZM20.0989 26.6051C19.8645 26.2981 19.6766 25.7931 19.6766 24.9772H18.6766C18.6766 25.9406 18.8988 26.6811 19.304 27.2119L20.0989 26.6051ZM19.6766 24.9772V22.0449H18.6766V24.9772H19.6766ZM19.6766 22.0449C19.6766 21.2026 19.855 20.6368 20.082 20.3363L19.284 19.7336C18.8713 20.2801 18.6766 21.0977 18.6766 22.0449H19.6766ZM20.0811 20.3375C20.42 19.8915 20.871 19.6589 21.4864 19.6589V18.6589C20.5647 18.6589 19.8167 19.0326 19.2849 19.7324L20.0811 20.3375ZM21.4864 19.6589C22.0882 19.6589 22.5359 19.8909 22.8604 20.3315L23.6656 19.7384C23.1462 19.0333 22.395 18.6589 21.4864 18.6589V19.6589ZM22.8617 20.3332C23.0855 20.6344 23.2527 21.1645 23.2527 22.0078H24.2527C24.2527 21.0613 24.0699 20.2825 23.6643 19.7367L22.8617 20.3332ZM23.2527 22.0079L23.253 23.7206L24.253 23.7204L24.2527 22.0077L23.2527 22.0079ZM23.753 23.2205H20.7565V24.2205H23.753V23.2205ZM20.2565 23.7205V25.225H21.2565V23.7205H20.2565ZM20.2565 25.2216C20.2537 25.6366 20.3067 26.042 20.499 26.3568C20.72 26.7185 21.0774 26.8873 21.4864 26.8873V25.8873C21.42 25.8873 21.3923 25.875 21.3849 25.8712C21.3801 25.8687 21.3691 25.8628 21.3523 25.8354C21.3076 25.7622 21.2541 25.5865 21.2565 25.2284L20.2565 25.2216ZM17.6787 25.1447C17.6787 25.8986 17.6138 26.3928 17.5313 26.684L18.4935 26.9566C18.612 26.5381 18.6787 25.9394 18.6787 25.1447H17.6787ZM17.5366 26.6667C17.4611 26.9004 17.3533 27.0428 17.2409 27.128C17.1301 27.2118 16.9807 27.2661 16.774 27.2661V28.2661C17.1667 28.2661 17.5361 28.1587 17.8444 27.9253C18.1511 27.6931 18.3627 27.3627 18.4882 26.9739L17.5366 26.6667ZM16.774 27.2661C16.4513 27.2661 16.0315 27.068 15.5772 26.5017L14.7972 27.1275C15.3489 27.8152 16.0261 28.2661 16.774 28.2661V27.2661ZM14.6872 26.8134L14.6851 27.6568L15.6851 27.6593L15.6872 26.8158L14.6872 26.8134ZM15.1851 27.1581H13.6883V28.1581H15.1851V27.1581ZM14.1883 27.6581V16.4317H13.1883V27.6581H14.1883ZM13.6883 16.9317H15.1851V15.9317H13.6883V16.9317ZM14.6851 16.4315L14.6834 20.0915L15.6834 20.092L15.6851 16.432L14.6851 16.4315ZM15.5725 20.4057C16.0128 19.8599 16.435 19.6458 16.774 19.6458V18.6458C16.0053 18.6458 15.3265 19.118 14.7942 19.7778L15.5725 20.4057ZM16.774 19.6458C16.9704 19.6458 17.1051 19.7004 17.207 19.7844C17.3148 19.8733 17.4214 20.0253 17.5011 20.2742L18.4535 19.9691C18.3323 19.591 18.1369 19.2551 17.8432 19.0129C17.5435 18.7657 17.177 18.6458 16.774 18.6458V19.6458ZM17.4982 20.2647C17.5831 20.5492 17.6787 21.0425 17.6787 21.7936H18.6787C18.6787 20.9587 18.5725 20.3677 18.4564 19.9787L17.4982 20.2647ZM17.6787 21.7936V25.1447H18.6787V21.7936H17.6787ZM12.441 27.1581H10.861V28.1581H12.441V27.1581ZM11.361 27.6581V26.7365H10.361V27.6581H11.361ZM10.4831 26.4092C9.90078 27.0816 9.52181 27.2775 9.20085 27.2775V28.2775C9.98685 28.2775 10.6234 27.7748 11.239 27.0638L10.4831 26.4092ZM9.20085 27.2775C9.03862 27.2775 8.93281 27.2398 8.86194 27.1929C8.7918 27.1466 8.72468 27.0707 8.67261 26.9421L7.74567 27.3173C7.8624 27.6057 8.04833 27.8538 8.31043 28.0271C8.57181 28.1999 8.87745 28.2775 9.20085 28.2775V27.2775ZM8.67261 26.9421C8.60346 26.7712 8.53377 26.4467 8.53377 25.8987H7.53377C7.53377 26.5138 7.60959 26.9811 7.74567 27.3173L8.67261 26.9421ZM8.53377 25.8987V19.2802H7.53377V25.8987H8.53377ZM8.03377 19.7802H9.61371V18.7802H8.03377V19.7802ZM9.11371 19.2802V25.4798H10.1137V19.2802H9.11371ZM9.11371 25.4798V26.0663H10.1137V25.4798H9.11371ZM9.11974 26.1437C9.14532 26.307 9.20566 26.5183 9.37946 26.6805C9.56293 26.8518 9.78404 26.8873 9.95058 26.8873V25.8873C9.93401 25.8873 9.94254 25.8853 9.96536 25.8923C9.99192 25.9005 10.028 25.918 10.0618 25.9495C10.1266 26.0099 10.1189 26.0607 10.1077 25.9889L9.11974 26.1437ZM9.95058 26.8873C10.2606 26.8873 10.5153 26.7481 10.7173 26.5768C10.9144 26.4095 11.0956 26.1828 11.2699 25.9352L10.4522 25.3596C10.292 25.5871 10.1691 25.7304 10.0703 25.8143C10.0233 25.8542 9.99091 25.8726 9.97226 25.8808C9.96335 25.8847 9.95781 25.8862 9.95522 25.8867C9.95277 25.8873 9.95148 25.8873 9.95058 25.8873V26.8873ZM11.361 25.6474V19.2802H10.361V25.6474H11.361ZM10.861 19.7802H12.441V18.7802H10.861V19.7802ZM11.941 19.2802V27.6581H12.941V19.2802H11.941ZM6.45382 27.1581H4.79071V28.1581H6.45382V27.1581ZM5.29071 27.6581V18.0235H4.29071V27.6581H5.29071ZM4.79071 17.5235H3.04445V18.5235H4.79071V17.5235ZM3.54445 18.0235V16.4335H2.54445V18.0235H3.54445ZM3.04462 16.9335L8.2834 16.9317L8.28306 15.9317L3.04429 15.9335L3.04462 16.9335ZM7.78323 16.4317V18.0235H8.78323V16.4317H7.78323ZM8.28323 17.5235H6.45382V18.5235H8.28323V17.5235ZM5.95382 18.0235V27.6581H6.95382V18.0235H5.95382ZM25.5829 17.2618C26.078 17.1918 26.078 17.1917 26.078 17.1916C26.078 17.1916 26.0779 17.1915 26.0779 17.1914C26.0779 17.1912 26.0779 17.191 26.0779 17.1908C26.0778 17.1903 26.0777 17.1898 26.0776 17.1891C26.0774 17.1878 26.0772 17.1861 26.0769 17.184C26.0762 17.1797 26.0754 17.1738 26.0742 17.1664C26.0719 17.1516 26.0686 17.1306 26.0642 17.1042C26.0554 17.0512 26.0421 16.9761 26.0238 16.8842C25.9873 16.7009 25.9303 16.4478 25.8483 16.1683C25.691 15.6326 25.4167 14.9106 24.952 14.4389L24.2396 15.1406C24.5194 15.4247 24.7386 15.9387 24.8888 16.4501C24.9605 16.6942 25.0107 16.9174 25.043 17.0794C25.0591 17.1602 25.0705 17.2251 25.0779 17.269C25.0815 17.2909 25.0842 17.3075 25.0858 17.3182C25.0866 17.3236 25.0872 17.3274 25.0875 17.3297C25.0877 17.3309 25.0878 17.3316 25.0879 17.332C25.0879 17.3321 25.0879 17.3322 25.0879 17.3322C25.0879 17.3322 25.0879 17.3321 25.0879 17.3321C25.0879 17.332 25.0879 17.332 25.0879 17.3319C25.0879 17.3319 25.0878 17.3318 25.5829 17.2618ZM24.9579 14.445C23.8695 13.3015 22.6165 13.2922 22.1671 13.2385L22.0485 14.2314C22.5697 14.2937 23.4338 14.2942 24.2336 15.1345L24.9579 14.445ZM22.1439 13.2363C20.3926 13.1093 18.2098 13.0461 16.4704 13.0146C15.5995 12.9988 14.8376 12.9909 14.2933 12.987C14.0211 12.985 13.8033 12.984 13.6534 12.9835C13.5784 12.9833 13.5204 12.9832 13.4811 12.9831C13.4615 12.9831 13.4465 12.983 13.4364 12.983C13.4314 12.983 13.4275 12.983 13.425 12.983C13.4237 12.983 13.4227 12.983 13.422 12.983C13.4217 12.983 13.4214 12.983 13.4213 12.983C13.4212 12.983 13.4211 12.983 13.4211 12.983C13.421 12.983 13.421 12.983 13.421 13.483C13.421 13.983 13.421 13.983 13.421 13.983C13.421 13.983 13.4211 13.983 13.4212 13.983C13.4213 13.983 13.4215 13.983 13.4218 13.983C13.4224 13.983 13.4233 13.983 13.4246 13.983C13.427 13.983 13.4307 13.983 13.4356 13.983C13.4455 13.983 13.4602 13.9831 13.4796 13.9831C13.5183 13.9832 13.5757 13.9833 13.6501 13.9835C13.7988 13.984 14.0153 13.985 14.286 13.987C14.8276 13.9909 15.5858 13.9987 16.4523 14.0144C18.1876 14.0459 20.3483 14.1087 22.0716 14.2336L22.1439 13.2363ZM13.421 12.983H13.4101V13.983H13.421V12.983ZM13.4101 13.483C13.4101 12.983 13.41 12.983 13.41 12.983C13.41 12.983 13.4099 12.983 13.4098 12.983C13.4096 12.983 13.4094 12.983 13.409 12.983C13.4084 12.983 13.4074 12.983 13.4061 12.983C13.4035 12.983 13.3997 12.983 13.3946 12.983C13.3845 12.983 13.3696 12.9831 13.3499 12.9831C13.3106 12.9832 13.2526 12.9833 13.1777 12.9835C13.0278 12.984 12.8099 12.985 12.5377 12.987C11.9934 12.9909 11.2314 12.9988 10.3605 13.0146C8.62108 13.0461 6.43829 13.1093 4.68695 13.2363L4.75926 14.2336C6.48256 14.1087 8.64326 14.0459 10.3786 14.0144C11.2452 13.9987 12.0034 13.9909 12.545 13.987C12.8157 13.985 13.0323 13.984 13.181 13.9835C13.2553 13.9833 13.3127 13.9832 13.3515 13.9831C13.3709 13.9831 13.3856 13.983 13.3954 13.983C13.4003 13.983 13.404 13.983 13.4065 13.983C13.4077 13.983 13.4086 13.983 13.4092 13.983C13.4095 13.983 13.4097 13.983 13.4099 13.983C13.41 13.983 13.41 13.983 13.41 13.983C13.4101 13.983 13.4101 13.983 13.4101 13.483ZM4.66382 13.2385C4.21413 13.2922 2.96179 13.3015 1.87301 14.4449L2.5972 15.1345C3.39738 14.2942 4.26117 14.2937 4.7824 14.2314L4.66382 13.2385ZM1.87888 14.4389C1.41421 14.9106 1.13997 15.6327 0.982752 16.1684C0.900753 16.4478 0.843865 16.701 0.807401 16.8843C0.789115 16.9762 0.775825 17.0513 0.766991 17.1043C0.762571 17.1307 0.759258 17.1517 0.756985 17.1665C0.755849 17.1739 0.754972 17.1798 0.754346 17.1841C0.754033 17.1862 0.753782 17.1879 0.753594 17.1892C0.753499 17.1899 0.753421 17.1904 0.753357 17.1909C0.753325 17.1911 0.753297 17.1913 0.753273 17.1915C0.753261 17.1915 0.753246 17.1917 0.75324 17.1917C0.753225 17.1918 0.753212 17.1919 1.2483 17.2618C1.74339 17.3317 1.74338 17.3318 1.74337 17.3319C1.74337 17.3319 1.74336 17.3319 1.74335 17.332C1.74334 17.332 1.74334 17.3321 1.74333 17.3321C1.74333 17.3321 1.74334 17.332 1.74337 17.3319C1.74342 17.3315 1.74352 17.3308 1.74369 17.3296C1.74403 17.3273 1.7446 17.3235 1.74542 17.3181C1.74706 17.3075 1.74968 17.2908 1.75334 17.2689C1.76067 17.225 1.77213 17.1601 1.78819 17.0794C1.82043 16.9173 1.87065 16.6941 1.94229 16.45C2.09235 15.9387 2.31151 15.4247 2.59133 15.1406L1.87888 14.4389ZM1.2483 17.2618C0.752054 17.2006 0.75205 17.2007 0.752044 17.2007C0.752041 17.2008 0.752034 17.2008 0.752028 17.2009C0.752016 17.201 0.752 17.2011 0.75198 17.2013C0.75194 17.2016 0.751885 17.202 0.751816 17.2026C0.751677 17.2037 0.751479 17.2053 0.751225 17.2074C0.750716 17.2116 0.749979 17.2178 0.74903 17.2257C0.747131 17.2416 0.744383 17.265 0.740906 17.2952C0.733952 17.3557 0.724082 17.4438 0.71227 17.5557C0.68865 17.7793 0.657232 18.0981 0.625829 18.4804C0.563132 19.2437 0.5 20.2661 0.5 21.2925H1.5C1.5 20.3034 1.56102 19.3104 1.62247 18.5623C1.65315 18.1888 1.6838 17.8779 1.70674 17.6607C1.7182 17.5521 1.72773 17.4671 1.73436 17.4094C1.73767 17.3806 1.74026 17.3587 1.742 17.3441C1.74287 17.3368 1.74352 17.3314 1.74395 17.3278C1.74417 17.326 1.74433 17.3247 1.74443 17.3239C1.74448 17.3235 1.74451 17.3232 1.74453 17.3231C1.74454 17.323 1.74455 17.3229 1.74455 17.3229C1.74455 17.3229 1.74455 17.3229 1.74455 17.3229C1.74455 17.3229 1.74455 17.3229 1.2483 17.2618ZM0.5 21.2925V23.1819H1.5V21.2925H0.5ZM0.5 23.1819C0.5 24.2082 0.563132 25.2306 0.625829 25.9939C0.657232 26.3762 0.68865 26.695 0.712269 26.9187C0.724082 27.0305 0.733952 27.1187 0.740906 27.1791C0.744383 27.2094 0.747131 27.2327 0.74903 27.2486C0.749979 27.2566 0.750716 27.2627 0.751225 27.2669C0.751479 27.269 0.751677 27.2706 0.751816 27.2717C0.751885 27.2723 0.75194 27.2728 0.75198 27.2731C0.751999 27.2732 0.752016 27.2734 0.752028 27.2735C0.752034 27.2735 0.752041 27.2736 0.752044 27.2736C0.752049 27.2736 0.752054 27.2737 1.2483 27.2125C1.74455 27.1514 1.74455 27.1514 1.74455 27.1514C1.74455 27.1514 1.74455 27.1514 1.74455 27.1514C1.74455 27.1514 1.74454 27.1514 1.74453 27.1513C1.74451 27.1511 1.74448 27.1508 1.74443 27.1504C1.74433 27.1496 1.74417 27.1483 1.74395 27.1465C1.74352 27.143 1.74287 27.1375 1.742 27.1302C1.74026 27.1156 1.73767 27.0937 1.73436 27.0649C1.72773 27.0073 1.7182 26.9222 1.70674 26.8137C1.6838 26.5965 1.65315 26.2855 1.62247 25.912C1.56102 25.1639 1.5 24.171 1.5 23.1819H0.5ZM1.2483 27.2125C0.753212 27.2824 0.753226 27.2825 0.75324 27.2826C0.753246 27.2827 0.753261 27.2828 0.753273 27.2829C0.753298 27.2831 0.753326 27.2832 0.753357 27.2835C0.753421 27.2839 0.7535 27.2845 0.753594 27.2851C0.753783 27.2864 0.754033 27.2882 0.754346 27.2903C0.754972 27.2945 0.755849 27.3004 0.756986 27.3078C0.759259 27.3226 0.762572 27.3436 0.766992 27.3701C0.775826 27.423 0.789115 27.4981 0.807402 27.59C0.843866 27.7734 0.900754 28.0265 0.982755 28.3059C1.13997 28.8416 1.41422 29.5636 1.8789 30.0353L2.59131 29.3336C2.3115 29.0495 2.09235 28.5356 1.94228 28.0243C1.87065 27.7802 1.82042 27.557 1.78819 27.395C1.77213 27.3142 1.76067 27.2493 1.75334 27.2054C1.74968 27.1835 1.74706 27.1669 1.74542 27.1562C1.7446 27.1508 1.74403 27.147 1.74369 27.1447C1.74352 27.1436 1.74342 27.1428 1.74337 27.1425C1.74334 27.1423 1.74333 27.1422 1.74333 27.1422C1.74334 27.1423 1.74334 27.1423 1.74335 27.1424C1.74336 27.1424 1.74337 27.1425 1.74337 27.1425C1.74338 27.1426 1.74339 27.1426 1.2483 27.2125ZM1.87296 30.0292C2.96206 31.1732 4.45463 31.1601 4.8806 31.2403L5.06554 30.2576C4.38655 30.1298 3.3971 30.1799 2.59724 29.3397L1.87296 30.0292ZM4.92515 31.2466C5.94114 31.3445 8.07268 31.4072 9.92883 31.4457C10.8616 31.4651 11.7319 31.4785 12.369 31.487C12.6876 31.4913 12.9479 31.4943 13.1287 31.4963C13.2191 31.4973 13.2896 31.498 13.3375 31.4985C13.3614 31.4988 13.3798 31.4989 13.3921 31.4991C13.3983 31.4991 13.403 31.4992 13.4061 31.4992C13.4077 31.4992 13.4089 31.4992 13.4097 31.4992C13.4101 31.4992 13.4104 31.4992 13.4106 31.4992C13.4107 31.4992 13.4108 31.4992 13.4108 31.4992C13.4109 31.4992 13.4109 31.4992 13.4155 30.9993C13.4201 30.4993 13.42 30.4993 13.42 30.4993C13.42 30.4993 13.4199 30.4993 13.4198 30.4993C13.4196 30.4993 13.4193 30.4993 13.4189 30.4993C13.4182 30.4993 13.417 30.4993 13.4155 30.4992C13.4124 30.4992 13.4078 30.4992 13.4017 30.4991C13.3895 30.499 13.3713 30.4988 13.3475 30.4986C13.2999 30.4981 13.2297 30.4974 13.1397 30.4964C12.9597 30.4944 12.7001 30.4913 12.3824 30.4871C11.7469 30.4786 10.8792 30.4652 9.9496 30.4459C8.08117 30.4071 5.9915 30.3447 5.02099 30.2512L4.92515 31.2466ZM13.4155 30.9993C13.4162 31.4993 13.4163 31.4993 13.4163 31.4993C13.4164 31.4993 13.4164 31.4993 13.4165 31.4993C13.4167 31.4993 13.417 31.4993 13.4173 31.4993C13.418 31.4993 13.4189 31.4993 13.4202 31.4993C13.4228 31.4993 13.4266 31.4992 13.4317 31.4992C13.4418 31.4992 13.4568 31.4992 13.4765 31.4991C13.5158 31.499 13.5738 31.4988 13.6488 31.4984C13.7989 31.4977 14.0169 31.4964 14.2893 31.4941C14.8341 31.4894 15.5967 31.4805 16.4682 31.4638C18.2089 31.4303 20.3928 31.3652 22.1439 31.2382L22.0716 30.2409C20.348 30.3658 18.1857 30.4305 16.449 30.4639C15.5818 30.4806 14.8228 30.4895 14.2807 30.4941C14.0097 30.4964 13.793 30.4977 13.6441 30.4984C13.5697 30.4988 13.5122 30.499 13.4734 30.4991C13.454 30.4992 13.4393 30.4992 13.4294 30.4992C13.4245 30.4992 13.4208 30.4993 13.4183 30.4993C13.4171 30.4993 13.4162 30.4993 13.4156 30.4993C13.4153 30.4993 13.4151 30.4993 13.4149 30.4993C13.4149 30.4993 13.4148 30.4993 13.4148 30.4993C13.4147 30.4993 13.4147 30.4993 13.4155 30.9993ZM22.1672 31.236C22.6165 31.1823 23.8695 31.1729 24.958 30.0291L24.2336 29.3397C23.4338 30.1802 22.5697 30.1807 22.0484 30.2431L22.1672 31.236ZM24.952 30.0353C25.4166 29.5636 25.691 28.8416 25.8483 28.306C25.9303 28.0266 25.9873 27.7734 26.0238 27.5901C26.0421 27.4982 26.0554 27.4231 26.0642 27.3702C26.0686 27.3437 26.0719 27.3227 26.0742 27.3079C26.0754 27.3005 26.0762 27.2946 26.0769 27.2904C26.0772 27.2882 26.0774 27.2865 26.0776 27.2852C26.0777 27.2846 26.0778 27.284 26.0779 27.2836C26.0779 27.2833 26.0779 27.2831 26.0779 27.283C26.0779 27.2829 26.078 27.2828 26.078 27.2827C26.078 27.2826 26.078 27.2825 25.5829 27.2125C25.0878 27.1425 25.0879 27.1425 25.0879 27.1424C25.0879 27.1424 25.0879 27.1423 25.0879 27.1423C25.0879 27.1422 25.0879 27.1422 25.0879 27.1421C25.0879 27.1421 25.0879 27.1422 25.0879 27.1424C25.0878 27.1427 25.0877 27.1435 25.0875 27.1446C25.0872 27.1469 25.0866 27.1507 25.0858 27.1561C25.0842 27.1668 25.0815 27.1834 25.0779 27.2053C25.0705 27.2492 25.0591 27.3141 25.043 27.3949C25.0107 27.5569 24.9605 27.7801 24.8888 28.0242C24.7386 28.5355 24.5194 29.0495 24.2396 29.3336L24.952 30.0353ZM25.5829 27.2125C26.0792 27.2736 26.0792 27.2736 26.0792 27.2735C26.0792 27.2735 26.0792 27.2734 26.0792 27.2734C26.0792 27.2733 26.0792 27.2732 26.0793 27.273C26.0793 27.2727 26.0793 27.2722 26.0794 27.2717C26.0796 27.2705 26.0798 27.2689 26.08 27.2668C26.0805 27.2626 26.0812 27.2565 26.0822 27.2485C26.0841 27.2326 26.0868 27.2093 26.0903 27.1791C26.0973 27.1186 26.1071 27.0305 26.1189 26.9186C26.1425 26.695 26.1739 26.3762 26.2052 25.9939C26.2678 25.2306 26.3309 24.2082 26.3309 23.1819H25.3309C25.3309 24.171 25.27 25.1639 25.2086 25.9121C25.1779 26.2855 25.1473 26.5965 25.1244 26.8137C25.113 26.9223 25.1035 27.0073 25.0968 27.065C25.0935 27.0938 25.0909 27.1157 25.0892 27.1303C25.0883 27.1376 25.0877 27.143 25.0873 27.1466C25.087 27.1484 25.0869 27.1497 25.0868 27.1505C25.0867 27.1509 25.0867 27.1512 25.0867 27.1514C25.0867 27.1514 25.0867 27.1515 25.0867 27.1515C25.0867 27.1515 25.0867 27.1515 25.0867 27.1515C25.0867 27.1515 25.0867 27.1515 25.5829 27.2125ZM26.3309 23.1819V21.2925H25.3309V23.1819H26.3309ZM26.3309 21.2925C26.3309 20.2662 26.2678 19.2438 26.2052 18.4805C26.1739 18.0982 26.1425 17.7794 26.1189 17.5557C26.1071 17.4439 26.0973 17.3557 26.0903 17.2953C26.0868 17.265 26.0841 17.2417 26.0822 17.2258C26.0812 17.2178 26.0805 17.2117 26.08 17.2075C26.0798 17.2054 26.0796 17.2038 26.0794 17.2027C26.0793 17.2021 26.0793 17.2017 26.0793 17.2013C26.0792 17.2012 26.0792 17.201 26.0792 17.2009C26.0792 17.2009 26.0792 17.2008 26.0792 17.2008C26.0792 17.2008 26.0792 17.2007 25.5829 17.2618C25.0867 17.3229 25.0867 17.3228 25.0867 17.3228C25.0867 17.3228 25.0867 17.3228 25.0867 17.3228C25.0867 17.3229 25.0867 17.3229 25.0867 17.323C25.0867 17.3232 25.0867 17.3234 25.0868 17.3239C25.0869 17.3247 25.087 17.326 25.0873 17.3277C25.0877 17.3313 25.0883 17.3367 25.0892 17.344C25.0909 17.3586 25.0935 17.3806 25.0968 17.4094C25.1035 17.467 25.113 17.552 25.1244 17.6606C25.1473 17.8778 25.1779 18.1888 25.2086 18.5622C25.27 19.3104 25.3309 20.3033 25.3309 21.2925H26.3309Z" fill="black" fill-opacity="0.2"/>
            </g>
        </g>
    </symbol>
</svg>