<?xml version="1.0" encoding="UTF-8"?>
<svg style="width:0; height:0; visibility:hidden;" xmlns="http://www.w3.org/2000/svg">
    <symbol id="dribbble" viewBox="0 0 14 14">
        <g>
            <path fill-rule="evenodd" clip-rule="evenodd"
                  d="M13.4 7.22645C13.4 7.65927 13.3559 8.09149 13.2694 8.5128C13.185 8.92411 13.06 9.32791 12.8962 9.71393C12.7362 10.0931 12.5378 10.4585 12.3059 10.7993C12.0775 11.1379 11.8143 11.4556 11.5252 11.7452C11.2355 12.0335 10.9168 12.2959 10.5783 12.5253C10.2364 12.7556 9.8705 12.9538 9.49109 13.1145C9.10451 13.2774 8.69977 13.4022 8.28883 13.4865C7.86695 13.5733 7.43316 13.6176 6.99971 13.6176C6.56594 13.6176 6.13217 13.5733 5.7109 13.4865C5.29933 13.4022 4.89462 13.2774 4.50834 13.1145C4.12896 12.9538 3.76267 12.7556 3.42079 12.5253C3.08233 12.296 2.76357 12.0335 2.47449 11.7452C2.18511 11.4556 1.92195 11.1379 1.6932 10.7993C1.46256 10.4585 1.26378 10.0931 1.10316 9.71393C0.939383 9.32791 0.814082 8.92409 0.729387 8.5128C0.643765 8.09149 0.600002 7.65927 0.600002 7.22645C0.600002 6.79331 0.64374 6.36017 0.729412 5.93978C0.814107 5.52847 0.939408 5.12404 1.10319 4.73865C1.26381 4.35919 1.46258 3.99346 1.69322 3.65267C1.92198 3.31377 2.18513 2.9967 2.47451 2.70678C2.76359 2.41842 3.08236 2.15662 3.42081 1.92757C3.7627 1.69631 4.12898 1.49818 4.50837 1.33714C4.89464 1.17389 5.29933 1.04877 5.71093 0.96515C6.1322 0.879027 6.56597 0.835327 6.99974 0.835327C7.43318 0.835327 7.86695 0.879027 8.28885 0.96515C8.6998 1.0488 9.10451 1.17392 9.49111 1.33714C9.8705 1.49815 10.2365 1.69631 10.5783 1.92757C10.9168 2.15662 11.2356 2.41842 11.5253 2.70678C11.8143 2.9967 12.0775 3.31377 12.3059 3.65267C12.5378 3.99346 12.7362 4.35921 12.8962 4.73865C13.06 5.12404 13.185 5.52847 13.2694 5.93978C13.3559 6.36017 13.4 6.79331 13.4 7.22645ZM4.66769 2.28986C3.14353 3.00857 2.00598 4.41098 1.65127 6.10114C1.79535 6.10239 4.07297 6.1311 6.69716 5.43486C5.75119 3.75656 4.74051 2.38694 4.66769 2.28986ZM7.14999 6.27529C4.3358 7.11659 1.63533 7.05605 1.53846 7.05233C1.53688 7.11098 1.53408 7.16777 1.53408 7.22645C1.53408 8.62854 2.06379 9.90676 2.93446 10.8733C2.93258 10.8704 4.42831 8.22068 7.37782 7.26827C7.44907 7.24456 7.52159 7.22332 7.59346 7.20274C7.45628 6.89256 7.30656 6.58174 7.14999 6.27529ZM10.6093 3.13027C9.64701 2.28299 8.38352 1.76905 6.9997 1.76905C6.55561 1.76905 6.12464 1.82273 5.71181 1.92196C5.79368 2.03182 6.82031 3.39179 7.75504 5.10563C9.81735 4.3336 10.5958 3.15023 10.6093 3.13027ZM7.96602 8.1071C7.95385 8.11113 7.94167 8.1146 7.92977 8.11896C4.70497 9.24155 3.65187 11.5039 3.64047 11.5286C4.56836 12.2491 5.73216 12.6839 6.99973 12.6839C7.75663 12.6839 8.4776 12.53 9.13356 12.2513C9.05262 11.7745 8.73511 10.1031 7.96602 8.1071ZM10.0539 11.7527C11.2812 10.9257 12.1528 9.61252 12.3959 8.09147C12.2834 8.05527 10.7542 7.57187 8.99008 7.85431C9.707 9.82159 9.99828 11.4237 10.0539 11.7527ZM8.17573 5.91889C8.30258 6.17916 8.42543 6.44406 8.53886 6.71028C8.57919 6.80579 8.61857 6.89941 8.65699 6.99302C10.5346 6.75708 12.3844 7.15403 12.4635 7.17024C12.451 5.87644 11.9875 4.68902 11.2206 3.75939C11.2103 3.77403 10.3337 5.03884 8.17573 5.91889Z"
                   fill="currentColor"/>
        </g>


    </symbol>
    <symbol id="svg-youtube" viewBox="0 0 18 21">
        <g>
            <path fill-rule="evenodd" clip-rule="evenodd"
                  d="M14.4637 8.04129H13.3864V7.41295C12.978 7.88455 12.6319 8.12275 12.2545 8.12275C11.9234 8.12275 11.6935 7.96537 11.5783 7.68102C11.5084 7.50817 11.4587 7.23821 11.4587 6.84173V2.27197H12.536V6.55612V6.95597C12.5611 7.11631 12.6287 7.17486 12.7657 7.17486C12.9718 7.17486 13.1584 6.99436 13.3864 6.67036V2.27197H14.4637V8.04129Z"
                     fill="currentColor"/>
            <path fill-rule="evenodd" clip-rule="evenodd"
                  d="M9.58818 6.32766C9.64488 6.89888 9.469 7.18231 9.13449 7.18231C8.80004 7.18231 8.62434 6.89888 8.68103 6.32766V4.04278C8.62434 3.47156 8.8001 3.20383 9.13461 3.20383C9.46912 3.20383 9.64544 3.47156 9.58875 4.04278L9.58818 6.32766ZM10.6655 4.15705C10.6655 3.54047 10.5426 3.07756 10.3253 2.78612C10.0383 2.39152 9.58828 2.22998 9.1347 2.22998C8.62131 2.22998 8.23062 2.39152 7.94407 2.78612C7.72335 3.07756 7.60497 3.5455 7.60497 4.16207L7.60389 6.21344C7.60389 6.82647 7.70918 7.25009 7.92995 7.53872C8.2165 7.93212 8.68113 8.1405 9.1347 8.1405C9.58828 8.1405 10.0611 7.93212 10.348 7.53872C10.5653 7.25009 10.6655 6.82647 10.6655 6.21344V4.15705Z"
                     fill="currentColor"/>
            <mask id="mask0_31_337" style="mask-type:luminance" maskUnits="userSpaceOnUse" x="3" y="0" width="5" height="9">
                <path fill-rule="evenodd" clip-rule="evenodd" d="M7.83021 0.329834H3.86144L3.86144 8.04129H7.83021V0.329834Z"
                      fill="white"/>
            </mask>
            <g mask="url(#mask0_31_337)">
                <path fill-rule="evenodd" clip-rule="evenodd"
                      d="M6.41279 4.89959V8.0413H5.27886V4.89959C5.27886 4.89959 4.10382 1.0478 3.86144 0.329834H5.05207L5.84781 3.33873L6.63958 0.329834H7.83021L6.41279 4.89959Z"
                         fill="currentColor"/>
            </g>
            <path fill-rule="evenodd" clip-rule="evenodd"
                  d="M10.9038 13.597C10.7348 13.597 10.5412 13.6869 10.3696 13.8576L10.3684 17.3218C10.5401 17.4947 10.7348 17.5823 10.9038 17.5823C11.1998 17.5823 11.3334 17.3634 11.3334 16.7922V14.336C11.3334 13.7648 11.1998 13.597 10.9038 13.597Z"
                     fill="currentColor"/>
            <path fill-rule="evenodd" clip-rule="evenodd"
                  d="M15.1315 14.2835C15.1315 13.7556 14.9961 13.5969 14.6558 13.5969C14.3129 13.5969 14.1677 13.7425 14.1677 14.2764V14.9082L15.1315 14.9071V14.2835Z"
                     fill="currentColor"/>
            <mask id="mask1_31_337" style="mask-type:luminance" maskUnits="userSpaceOnUse" x="0" y="8" width="18" height="13">
                <path fill-rule="evenodd" clip-rule="evenodd" d="M0.697573 20.7268H17.6277V8.78394H0.697573V20.7268Z"
                      fill="white"/>
            </mask>
            <g mask="url(#mask1_31_337)">
                <path fill-rule="evenodd" clip-rule="evenodd"
                      d="M14.6657 17.5823C14.9184 17.5823 15.0657 17.4438 15.1243 17.1673C15.1338 17.111 15.132 16.8644 15.132 16.4494H16.2092V16.6113C16.2092 16.9446 16.1819 17.1804 16.1727 17.2839C16.1381 17.5132 16.0575 17.7206 15.9327 17.9036C15.6487 18.3181 15.2275 18.5223 14.6912 18.5223C14.1543 18.5223 13.7456 18.3277 13.4487 17.9376C13.2307 17.652 13.0909 17.2274 13.0909 16.6208V14.6215C13.0909 14.0115 13.2181 13.5399 13.4362 13.2511C13.733 12.8605 14.1417 12.6538 14.6657 12.6538C15.1807 12.6538 15.5894 12.8605 15.8771 13.2511C16.0917 13.5399 16.211 13.9861 16.211 14.5962L16.2112 15.764H14.1681V16.7898C14.1645 17.3169 14.3134 17.5823 14.6657 17.5823ZM12.41 16.7351C12.41 17.263 12.3652 17.6356 12.2967 17.8775C12.1597 18.3019 11.861 18.5224 11.4523 18.5224C11.0873 18.5224 10.7133 18.3011 10.3704 17.8736L10.369 18.4487H9.34842V10.7944H10.369L10.3678 13.2899C10.6993 12.8789 11.0747 12.6449 11.4523 12.6449C11.861 12.6449 12.1357 12.8828 12.2727 13.3103C12.3413 13.5399 12.41 13.9095 12.41 14.4502V16.7351ZM8.49791 18.4487H7.42067V17.8204C7.01228 18.292 6.66609 18.5302 6.28872 18.5302C5.95761 18.5302 5.72765 18.3728 5.61255 18.0885C5.54259 17.9156 5.49298 17.6457 5.49298 17.2492V12.7365H6.57022V16.9636V17.3634C6.59533 17.5238 6.66292 17.5823 6.7999 17.5823C7.00604 17.5823 7.19263 17.4018 7.42067 17.0778V12.7365H8.49791V18.4487ZM4.41585 18.4487H3.28192V11.8797H2.09129V10.7956L5.66318 10.7944V11.8797H4.41585V18.4487ZM17.4587 11.3604C17.4587 11.3604 17.2932 10.1902 16.7856 9.67487C16.1419 8.9986 15.4201 8.99523 15.0892 8.9557C12.7201 8.78394 9.16642 8.78394 9.16642 8.78394H9.15899C9.15899 8.78394 5.60513 8.78394 3.23605 8.9557C2.90506 8.99523 2.18365 8.9986 1.53969 9.67487C1.03208 10.1902 0.866869 11.3604 0.866869 11.3604C0.866869 11.3604 0.697573 12.7344 0.697573 14.1086V15.3968C0.697573 16.7709 0.866869 18.145 0.866869 18.145C0.866869 18.145 1.03208 19.3151 1.53969 19.8303C2.18365 20.5068 3.02979 20.4853 3.40649 20.5561C4.76091 20.6865 9.16268 20.7268 9.16268 20.7268C9.16268 20.7268 12.7201 20.7215 15.0892 20.5497C15.4201 20.5102 16.1419 20.5068 16.7856 19.8303C17.2932 19.3151 17.4587 18.145 17.4587 18.145C17.4587 18.145 17.6277 16.7709 17.6277 15.3968V14.1086C17.6277 12.7344 17.4587 11.3604 17.4587 11.3604Z"
                         fill="currentColor"/>
            </g>
        </g>
    </symbol>

</svg>